<svg width="228" height="110" viewBox="0 0 228 110" fill="none" xmlns="http://www.w3.org/2000/svg">
<g clip-path="url(#clip0)">
<mask id="mask0" mask-type="alpha" maskUnits="userSpaceOnUse" x="127" y="12" width="4" height="3">
<path d="M128.818 15C129.621 15 130.272 14.3488 130.272 13.5455C130.272 12.7421 129.621 12.0909 128.818 12.0909C128.014 12.0909 127.363 12.7421 127.363 13.5455C127.363 14.3488 128.014 15 128.818 15Z" fill="white"/>
</mask>
<g mask="url(#mask0)">
<path d="M128.818 15C129.621 15 130.272 14.3488 130.272 13.5455C130.272 12.7421 129.621 12.0909 128.818 12.0909C128.014 12.0909 127.363 12.7421 127.363 13.5455C127.363 14.3488 128.014 15 128.818 15Z" fill="#E6EBEE"/>
</g>
<mask id="mask1" mask-type="alpha" maskUnits="userSpaceOnUse" x="93" y="99" width="3" height="3">
<path d="M94.2706 101.545C94.8728 101.545 95.3615 101.057 95.3615 100.455C95.3615 99.8524 94.8728 99.3636 94.2706 99.3636C93.6684 99.3636 93.1797 99.8524 93.1797 100.455C93.1797 101.057 93.6684 101.545 94.2706 101.545Z" fill="white"/>
</mask>
<g mask="url(#mask1)">
<path d="M94.2706 101.545C94.8728 101.545 95.3615 101.057 95.3615 100.455C95.3615 99.8524 94.8728 99.3636 94.2706 99.3636C93.6684 99.3636 93.1797 99.8524 93.1797 100.455C93.1797 101.057 93.6684 101.545 94.2706 101.545Z" fill="#E6EBEE"/>
</g>
<mask id="mask2" mask-type="alpha" maskUnits="userSpaceOnUse" x="156" y="39" width="2" height="2">
<path d="M157.18 40.4545C157.582 40.4545 157.908 40.1289 157.908 39.7273C157.908 39.3256 157.582 39 157.18 39C156.779 39 156.453 39.3256 156.453 39.7273C156.453 40.1289 156.779 40.4545 157.18 40.4545Z" fill="white"/>
</mask>
<g mask="url(#mask2)">
<path d="M157.18 40.4545C157.582 40.4545 157.908 40.1289 157.908 39.7273C157.908 39.3256 157.582 39 157.18 39C156.779 39 156.453 39.3256 156.453 39.7273C156.453 40.1289 156.779 40.4545 157.18 40.4545Z" fill="#E6EBEE"/>
</g>
<mask id="mask3" mask-type="alpha" maskUnits="userSpaceOnUse" x="207" y="48" width="2" height="2">
<path d="M208.091 49.9091C208.492 49.9091 208.818 49.5835 208.818 49.1819C208.818 48.7802 208.492 48.4546 208.091 48.4546C207.689 48.4546 207.363 48.7802 207.363 49.1819C207.363 49.5835 207.689 49.9091 208.091 49.9091Z" fill="white"/>
</mask>
<g mask="url(#mask3)">
<path d="M208.091 49.9091C208.492 49.9091 208.818 49.5835 208.818 49.1819C208.818 48.7802 208.492 48.4546 208.091 48.4546C207.689 48.4546 207.363 48.7802 207.363 49.1819C207.363 49.5835 207.689 49.9091 208.091 49.9091Z" fill="#E6EBEE"/>
</g>
<mask id="mask4" mask-type="alpha" maskUnits="userSpaceOnUse" x="36" y="79" width="2" height="2">
<path d="M37.1804 80.4545C37.5821 80.4545 37.9077 80.1287 37.9077 79.7273C37.9077 79.3258 37.5821 79 37.1804 79C36.7787 79 36.4531 79.3258 36.4531 79.7273C36.4531 80.1287 36.7787 80.4545 37.1804 80.4545Z" fill="white"/>
</mask>
<g mask="url(#mask4)">
<path d="M37.1804 80.4545C37.5821 80.4545 37.9077 80.1287 37.9077 79.7273C37.9077 79.3258 37.5821 79 37.1804 79C36.7787 79 36.4531 79.3258 36.4531 79.7273C36.4531 80.1287 36.7787 80.4545 37.1804 80.4545Z" fill="#E6EBEE"/>
</g>
<mask id="mask5" mask-type="alpha" maskUnits="userSpaceOnUse" x="143" y="105" width="2" height="2">
<path d="M144.091 106.636C144.492 106.636 144.818 106.311 144.818 105.909C144.818 105.508 144.492 105.182 144.091 105.182C143.689 105.182 143.363 105.508 143.363 105.909C143.363 106.311 143.689 106.636 144.091 106.636Z" fill="white"/>
</mask>
<g mask="url(#mask5)">
<path d="M144.091 106.636C144.492 106.636 144.818 106.311 144.818 105.909C144.818 105.508 144.492 105.182 144.091 105.182C143.689 105.182 143.363 105.508 143.363 105.909C143.363 106.311 143.689 106.636 144.091 106.636Z" fill="#E6EBEE"/>
</g>
<mask id="mask6" mask-type="alpha" maskUnits="userSpaceOnUse" x="51" y="94" width="6" height="5">
<path d="M53.9084 94.2728C54.1573 94.2728 54.2693 95.0743 54.8147 95.6197C55.3602 96.1652 56.0902 96.2066 56.0902 96.4546C56.0902 96.7026 55.3552 96.8139 54.8098 97.3594C54.2643 97.9048 54.2239 98.6365 53.9084 98.6365C53.5929 98.6365 53.5358 97.8677 52.9903 97.3223C52.4449 96.7768 51.7266 96.7266 51.7266 96.4546C51.7266 96.1826 52.3845 96.1746 52.955 95.6045C53.5254 95.0336 53.6594 94.2728 53.9084 94.2728Z" fill="white"/>
</mask>
<g mask="url(#mask6)">
<path d="M53.9084 94.2728C54.1573 94.2728 54.2693 95.0743 54.8147 95.6197C55.3602 96.1652 56.0902 96.2066 56.0902 96.4546C56.0902 96.7026 55.3552 96.8139 54.8098 97.3594C54.2643 97.9048 54.2239 98.6365 53.9084 98.6365C53.5929 98.6365 53.5358 97.8677 52.9903 97.3223C52.4449 96.7768 51.7266 96.7266 51.7266 96.4546C51.7266 96.1826 52.3845 96.1746 52.955 95.6045C53.5254 95.0336 53.6594 94.2728 53.9084 94.2728Z" fill="#FFDB63"/>
</g>
<mask id="mask7" mask-type="alpha" maskUnits="userSpaceOnUse" x="183" y="73" width="5" height="6">
<path d="M185.545 73.9092C185.794 73.9092 185.906 74.7106 186.451 75.2561C186.997 75.8015 187.727 75.843 187.727 76.091C187.727 76.339 186.992 76.4503 186.446 76.9957C185.901 77.5412 185.861 78.2728 185.545 78.2728C185.229 78.2728 185.173 77.5041 184.627 76.9586C184.082 76.4132 183.363 76.363 183.363 76.091C183.363 75.819 184.021 75.811 184.592 75.2408C185.162 74.6699 185.296 73.9092 185.545 73.9092Z" fill="white"/>
</mask>
<g mask="url(#mask7)">
<path d="M185.545 73.9092C185.794 73.9092 185.906 74.7106 186.451 75.2561C186.997 75.8015 187.727 75.843 187.727 76.091C187.727 76.339 186.992 76.4503 186.446 76.9957C185.901 77.5412 185.861 78.2728 185.545 78.2728C185.229 78.2728 185.173 77.5041 184.627 76.9586C184.082 76.4132 183.363 76.363 183.363 76.091C183.363 75.819 184.021 75.811 184.592 75.2408C185.162 74.6699 185.296 73.9092 185.545 73.9092Z" fill="#FFDB63"/>
</g>
<mask id="mask8" mask-type="alpha" maskUnits="userSpaceOnUse" x="96" y="7" width="6" height="6">
<path d="M98.9982 7.72729C99.2469 7.72729 99.3589 8.5286 99.9044 9.07406C100.45 9.61951 101.18 9.66126 101.18 9.90911C101.18 10.157 100.445 10.2681 99.8993 10.8135C99.3539 11.359 99.3139 12.0909 98.9982 12.0909C98.6826 12.0909 98.6259 11.3221 98.0804 10.7766C97.535 10.2311 96.8164 10.1808 96.8164 9.90911C96.8164 9.6374 97.4746 9.62911 98.0448 9.05871C98.6149 8.48824 98.7495 7.72729 98.9982 7.72729Z" fill="white"/>
</mask>
<g mask="url(#mask8)">
<path d="M98.9982 7.72729C99.2469 7.72729 99.3589 8.5286 99.9044 9.07406C100.45 9.61951 101.18 9.66126 101.18 9.90911C101.18 10.157 100.445 10.2681 99.8993 10.8135C99.3539 11.359 99.3139 12.0909 98.9982 12.0909C98.6826 12.0909 98.6259 11.3221 98.0804 10.7766C97.535 10.2311 96.8164 10.1808 96.8164 9.90911C96.8164 9.6374 97.4746 9.62911 98.0448 9.05871C98.6149 8.48824 98.7495 7.72729 98.9982 7.72729Z" fill="#FFDB63"/>
</g>
<mask id="mask9" mask-type="alpha" maskUnits="userSpaceOnUse" x="59" y="36" width="5" height="5">
<path d="M61.1818 36.0909C61.4305 36.0909 61.5425 36.8923 62.088 37.4377C62.6335 37.9832 63.3636 38.0249 63.3636 38.2728C63.3636 38.5206 62.6284 38.6317 62.0829 39.1772C61.5375 39.7227 61.4975 40.4546 61.1818 40.4546C60.8662 40.4546 60.8095 39.6857 60.264 39.1403C59.7183 38.5948 59 38.5445 59 38.2728C59 38.0011 59.658 37.9928 60.2284 37.4224C60.7985 36.8519 60.9331 36.0909 61.1818 36.0909Z" fill="white"/>
</mask>
<g mask="url(#mask9)">
<path d="M61.1818 36.0909C61.4305 36.0909 61.5425 36.8923 62.088 37.4377C62.6335 37.9832 63.3636 38.0249 63.3636 38.2728C63.3636 38.5206 62.6284 38.6317 62.0829 39.1772C61.5375 39.7227 61.4975 40.4546 61.1818 40.4546C60.8662 40.4546 60.8095 39.6857 60.264 39.1403C59.7183 38.5948 59 38.5445 59 38.2728C59 38.0011 59.658 37.9928 60.2284 37.4224C60.7985 36.8519 60.9331 36.0909 61.1818 36.0909Z" fill="#FFDB63"/>
</g>
<mask id="mask10" mask-type="alpha" maskUnits="userSpaceOnUse" x="157" y="0" width="9" height="8">
<path d="M161.543 0.45459C161.958 0.45459 162.144 1.79015 163.053 2.69924C163.962 3.60834 165.179 3.67786 165.179 4.09095C165.179 4.50405 163.954 4.68921 163.045 5.5983C162.136 6.50739 162.068 7.72732 161.543 7.72732C161.017 7.72732 160.922 6.44586 160.012 5.53677C159.103 4.62768 157.906 4.54383 157.906 4.09095C157.906 3.63808 159.003 3.62434 159.954 2.67357C160.904 1.72281 161.127 0.45459 161.543 0.45459Z" fill="white"/>
</mask>
<g mask="url(#mask10)">
<path d="M161.543 0.45459C161.958 0.45459 162.144 1.79015 163.053 2.69924C163.962 3.60834 165.179 3.67786 165.179 4.09095C165.179 4.50405 163.954 4.68921 163.045 5.5983C162.136 6.50739 162.068 7.72732 161.543 7.72732C161.017 7.72732 160.922 6.44586 160.012 5.53677C159.103 4.62768 157.906 4.54383 157.906 4.09095C157.906 3.63808 159.003 3.62434 159.954 2.67357C160.904 1.72281 161.127 0.45459 161.543 0.45459Z" fill="#FFDB63"/>
</g>
<mask id="mask11" mask-type="alpha" maskUnits="userSpaceOnUse" x="141" y="80" width="65" height="10">
<path d="M169.297 85.1208C170.153 83.2255 172.059 81.9091 174.271 81.9091C175.873 81.9091 177.314 82.6 178.313 83.7011C177.462 83.9651 176.671 84.3724 176.007 84.8793C175.69 85.1251 175.631 85.5819 175.877 85.8997C176.123 86.2175 176.58 86.2757 176.898 86.0306C177.678 85.419 178.547 85.0233 179.536 84.8793C179.575 84.88 179.614 84.8779 179.652 84.8728C179.922 84.835 180.173 84.8175 180.452 84.8182C183.22 84.8182 185.538 86.752 186.127 89.3426C186.204 89.6851 186.512 89.9164 186.85 89.9091H198.634C199.036 89.9091 199.362 89.5833 199.362 89.1819C199.362 88.7804 199.036 88.4546 198.634 88.4546H187.392C186.466 85.504 183.709 83.3637 180.452 83.3637C180.277 83.3637 180.097 83.371 179.919 83.384C178.669 81.6131 176.605 80.4546 174.271 80.4546C171.623 80.4546 169.325 81.9433 168.165 84.1273C165.746 84.3964 163.775 86.1484 163.181 88.4546H149.907C149.506 88.4546 149.18 88.7804 149.18 89.1819C149.18 89.5833 149.506 89.9091 149.907 89.9091H163.777C164.138 89.9091 164.445 89.643 164.497 89.2851C164.792 87.2211 166.533 85.6233 168.66 85.5484C168.936 85.5382 169.183 85.3731 169.297 85.1208ZM200.816 89.1819C200.816 88.7804 201.142 88.4546 201.543 88.4546H204.452C204.854 88.4546 205.18 88.7804 205.18 89.1819C205.18 89.5833 204.854 89.9091 204.452 89.9091H201.543C201.142 89.9091 200.816 89.5833 200.816 89.1819ZM141.907 88.4546C141.506 88.4546 141.18 88.7804 141.18 89.1819C141.18 89.5833 141.506 89.9091 141.907 89.9091H146.271C146.672 89.9091 146.998 89.5833 146.998 89.1819C146.998 88.7804 146.672 88.4546 146.271 88.4546H141.907Z" fill="white"/>
</mask>
<g mask="url(#mask11)">
<path d="M169.297 85.1208C170.153 83.2255 172.059 81.9091 174.271 81.9091C175.873 81.9091 177.314 82.6 178.313 83.7011C177.462 83.9651 176.671 84.3724 176.007 84.8793C175.69 85.1251 175.631 85.5819 175.877 85.8997C176.123 86.2175 176.58 86.2757 176.898 86.0306C177.678 85.419 178.547 85.0233 179.536 84.8793C179.575 84.88 179.614 84.8779 179.652 84.8728C179.922 84.835 180.173 84.8175 180.452 84.8182C183.22 84.8182 185.538 86.752 186.127 89.3426C186.204 89.6851 186.512 89.9164 186.85 89.9091H198.634C199.036 89.9091 199.362 89.5833 199.362 89.1819C199.362 88.7804 199.036 88.4546 198.634 88.4546H187.392C186.466 85.504 183.709 83.3637 180.452 83.3637C180.277 83.3637 180.097 83.371 179.919 83.384C178.669 81.6131 176.605 80.4546 174.271 80.4546C171.623 80.4546 169.325 81.9433 168.165 84.1273C165.746 84.3964 163.775 86.1484 163.181 88.4546H149.907C149.506 88.4546 149.18 88.7804 149.18 89.1819C149.18 89.5833 149.506 89.9091 149.907 89.9091H163.777C164.138 89.9091 164.445 89.643 164.497 89.2851C164.792 87.2211 166.533 85.6233 168.66 85.5484C168.936 85.5382 169.183 85.3731 169.297 85.1208ZM200.816 89.1819C200.816 88.7804 201.142 88.4546 201.543 88.4546H204.452C204.854 88.4546 205.18 88.7804 205.18 89.1819C205.18 89.5833 204.854 89.9091 204.452 89.9091H201.543C201.142 89.9091 200.816 89.5833 200.816 89.1819ZM141.907 88.4546C141.506 88.4546 141.18 88.7804 141.18 89.1819C141.18 89.5833 141.506 89.9091 141.907 89.9091H146.271C146.672 89.9091 146.998 89.5833 146.998 89.1819C146.998 88.7804 146.672 88.4546 146.271 88.4546H141.907Z" fill="#E6EBEE"/>
</g>
<mask id="mask12" mask-type="alpha" maskUnits="userSpaceOnUse" x="43" y="36" width="71" height="11">
<path d="M81.1811 37.5455C77.7673 37.5455 74.9993 40.3132 74.9993 43.7273C74.9993 44.129 74.6735 44.4546 74.272 44.4546C73.8706 44.4546 73.5447 44.129 73.5447 43.7273C73.5447 43.1688 73.6044 42.6244 73.7186 42.1C71.9338 42.6472 70.6357 44.3085 70.6357 46.2728C70.6357 46.6744 70.3098 47 69.9084 47H58.272C57.8703 47 57.5447 46.6744 57.5447 46.2728C57.5447 45.8711 57.8703 45.5455 58.272 45.5455H69.2262C69.5535 42.9185 71.632 40.8357 74.2575 40.5015C75.4735 37.8963 78.1164 36.0909 81.1811 36.0909C84.7746 36.0909 87.7869 38.572 88.6007 41.9144C88.6742 41.9111 88.7462 41.9093 88.8175 41.9091C91.1244 41.9091 93.0713 43.4425 93.6975 45.5455H112.817C113.219 45.5455 113.545 45.8711 113.545 46.2728C113.545 46.6744 113.219 47 112.817 47H93.1207C92.7658 47 92.4626 46.7434 92.4037 46.3931C92.1149 44.6738 90.6189 43.3637 88.8175 43.3637C88.5775 43.3629 88.376 43.3819 88.1484 43.4249C87.9542 43.461 87.7535 43.4165 87.5927 43.3016C87.432 43.1868 87.3251 43.0115 87.296 42.816C87.2931 42.7941 87.2895 42.7722 87.2866 42.7504C86.8182 39.8007 84.2626 37.5455 81.1811 37.5455ZM43.7266 46.2728C43.7266 45.8711 44.0522 45.5455 44.4538 45.5455H52.4538C52.8555 45.5455 53.1811 45.8711 53.1811 46.2728C53.1811 46.6744 52.8555 47 52.4538 47H44.4538C44.0522 47 43.7266 46.6744 43.7266 46.2728ZM52.4538 41.1819C52.0522 41.1819 51.7266 41.5075 51.7266 41.9091C51.7266 42.3108 52.0522 42.6364 52.4538 42.6364H57.5447C57.9464 42.6364 58.272 42.3108 58.272 41.9091C58.272 41.5075 57.9464 41.1819 57.5447 41.1819H52.4538Z" fill="white"/>
</mask>
<g mask="url(#mask12)">
<path d="M81.1811 37.5455C77.7673 37.5455 74.9993 40.3132 74.9993 43.7273C74.9993 44.129 74.6735 44.4546 74.272 44.4546C73.8706 44.4546 73.5447 44.129 73.5447 43.7273C73.5447 43.1688 73.6044 42.6244 73.7186 42.1C71.9338 42.6472 70.6357 44.3085 70.6357 46.2728C70.6357 46.6744 70.3098 47 69.9084 47H58.272C57.8703 47 57.5447 46.6744 57.5447 46.2728C57.5447 45.8711 57.8703 45.5455 58.272 45.5455H69.2262C69.5535 42.9185 71.632 40.8357 74.2575 40.5015C75.4735 37.8963 78.1164 36.0909 81.1811 36.0909C84.7746 36.0909 87.7869 38.572 88.6007 41.9144C88.6742 41.9111 88.7462 41.9093 88.8175 41.9091C91.1244 41.9091 93.0713 43.4425 93.6975 45.5455H112.817C113.219 45.5455 113.545 45.8711 113.545 46.2728C113.545 46.6744 113.219 47 112.817 47H93.1207C92.7658 47 92.4626 46.7434 92.4037 46.3931C92.1149 44.6738 90.6189 43.3637 88.8175 43.3637C88.5775 43.3629 88.376 43.3819 88.1484 43.4249C87.9542 43.461 87.7535 43.4165 87.5927 43.3016C87.432 43.1868 87.3251 43.0115 87.296 42.816C87.2931 42.7941 87.2895 42.7722 87.2866 42.7504C86.8182 39.8007 84.2626 37.5455 81.1811 37.5455ZM43.7266 46.2728C43.7266 45.8711 44.0522 45.5455 44.4538 45.5455H52.4538C52.8555 45.5455 53.1811 45.8711 53.1811 46.2728C53.1811 46.6744 52.8555 47 52.4538 47H44.4538C44.0522 47 43.7266 46.6744 43.7266 46.2728ZM52.4538 41.1819C52.0522 41.1819 51.7266 41.5075 51.7266 41.9091C51.7266 42.3108 52.0522 42.6364 52.4538 42.6364H57.5447C57.9464 42.6364 58.272 42.3108 58.272 41.9091C58.272 41.5075 57.9464 41.1819 57.5447 41.1819H52.4538Z" fill="#E6EBEE"/>
</g>
<mask id="mask13" mask-type="alpha" maskUnits="userSpaceOnUse" x="148" y="36" width="81" height="18">
<path d="M172.883 41.0939C172.186 42.0047 171.609 43.0122 171.177 44.0929C171.117 44.0917 171.057 44.091 170.999 44.0909C166.423 44.0909 162.671 47.6113 162.301 52.0909H149.18C148.779 52.0909 148.453 52.4165 148.453 52.8182C148.453 53.2199 148.779 53.5455 149.18 53.5455H162.999C163.4 53.5455 163.726 53.2199 163.726 52.8182C163.726 48.9035 166.819 45.7112 170.695 45.5517C170.418 46.5941 170.271 47.689 170.271 48.8182C170.271 49.2199 170.597 49.5455 170.999 49.5455C171.4 49.5455 171.726 49.2199 171.726 48.8182C171.726 46.2808 172.564 43.9391 173.979 42.0552C176.036 39.3165 179.311 37.5455 182.999 37.5455C183.152 37.5455 183.305 37.5485 183.457 37.5546C188.895 37.7719 193.342 41.8419 194.143 47.1093L194.145 47.1279C194.202 47.5056 194.542 47.7751 194.922 47.7448C195.072 47.7327 195.209 47.7272 195.362 47.7273C198.267 47.7273 200.641 49.9979 200.807 52.8603C200.83 53.245 201.148 53.5455 201.533 53.5455H217.544C217.946 53.5455 218.271 53.2199 218.271 52.8182C218.271 52.4165 217.946 52.0909 217.544 52.0909H202.186C201.668 48.8281 198.867 46.3261 195.471 46.2736C194.292 40.4637 189.156 36.0909 182.999 36.0909C178.873 36.0909 175.208 38.0531 172.883 41.0939ZM221.18 52.0909C220.779 52.0909 220.453 52.4165 220.453 52.8182C220.453 53.2199 220.779 53.5455 221.18 53.5455H227.726C228.127 53.5455 228.453 53.2199 228.453 52.8182C228.453 52.4165 228.127 52.0909 227.726 52.0909H221.18Z" fill="white"/>
</mask>
<g mask="url(#mask13)">
<path d="M172.883 41.0939C172.186 42.0047 171.609 43.0122 171.177 44.0929C171.117 44.0917 171.057 44.091 170.999 44.0909C166.423 44.0909 162.671 47.6113 162.301 52.0909H149.18C148.779 52.0909 148.453 52.4165 148.453 52.8182C148.453 53.2199 148.779 53.5455 149.18 53.5455H162.999C163.4 53.5455 163.726 53.2199 163.726 52.8182C163.726 48.9035 166.819 45.7112 170.695 45.5517C170.418 46.5941 170.271 47.689 170.271 48.8182C170.271 49.2199 170.597 49.5455 170.999 49.5455C171.4 49.5455 171.726 49.2199 171.726 48.8182C171.726 46.2808 172.564 43.9391 173.979 42.0552C176.036 39.3165 179.311 37.5455 182.999 37.5455C183.152 37.5455 183.305 37.5485 183.457 37.5546C188.895 37.7719 193.342 41.8419 194.143 47.1093L194.145 47.1279C194.202 47.5056 194.542 47.7751 194.922 47.7448C195.072 47.7327 195.209 47.7272 195.362 47.7273C198.267 47.7273 200.641 49.9979 200.807 52.8603C200.83 53.245 201.148 53.5455 201.533 53.5455H217.544C217.946 53.5455 218.271 53.2199 218.271 52.8182C218.271 52.4165 217.946 52.0909 217.544 52.0909H202.186C201.668 48.8281 198.867 46.3261 195.471 46.2736C194.292 40.4637 189.156 36.0909 182.999 36.0909C178.873 36.0909 175.208 38.0531 172.883 41.0939ZM221.18 52.0909C220.779 52.0909 220.453 52.4165 220.453 52.8182C220.453 53.2199 220.779 53.5455 221.18 53.5455H227.726C228.127 53.5455 228.453 53.2199 228.453 52.8182C228.453 52.4165 228.127 52.0909 227.726 52.0909H221.18Z" fill="#CAD3D9"/>
</g>
<mask id="mask14" mask-type="alpha" maskUnits="userSpaceOnUse" x="0" y="55" width="104" height="20">
<path d="M47.7262 56.4545C37.6732 56.4545 29.4172 64.152 28.5321 73.9745C28.4983 74.3491 28.1841 74.6364 27.8077 74.6364H8.08984C7.68817 74.6364 7.36257 74.3105 7.36257 73.9091C7.36257 73.5076 7.68817 73.1818 8.08984 73.1818H27.1538C28.4089 62.9349 37.1405 55 47.7262 55C56.0725 55 63.2652 59.933 66.5504 67.04C67.3808 66.7775 68.2644 66.6364 69.1808 66.6364C73.2477 66.6364 76.6637 69.4175 77.6331 73.1818H102.635C103.037 73.1818 103.363 73.5076 103.363 73.9091C103.363 74.3105 103.037 74.6364 102.635 74.6364H77.0615H77.0491C77.0418 74.6364 77.0353 74.6364 77.0288 74.6364C77.0258 74.6356 77.0229 74.6356 77.02 74.6356C76.6811 74.6225 76.3953 74.376 76.3335 74.0407C75.7117 70.656 72.7451 68.0909 69.1808 68.0909C66.9173 68.0909 64.8957 69.1244 63.5606 70.7476C63.3055 71.0575 62.8472 71.1018 62.537 70.8473C62.2267 70.592 62.1821 70.1338 62.4373 69.8233C63.1933 68.904 64.1344 68.1418 65.2037 67.5935C62.136 61.0131 55.4626 56.4545 47.7262 56.4545ZM0.817116 73.1818C0.415458 73.1818 0.0898438 73.5076 0.0898438 73.9091C0.0898438 74.3105 0.415458 74.6364 0.817116 74.6364H5.18075C5.58243 74.6364 5.90803 74.3105 5.90803 73.9091C5.90803 73.5076 5.58243 73.1818 5.18075 73.1818H0.817116Z" fill="white"/>
</mask>
<g mask="url(#mask14)">
<path d="M47.7262 56.4545C37.6732 56.4545 29.4172 64.152 28.5321 73.9745C28.4983 74.3491 28.1841 74.6364 27.8077 74.6364H8.08984C7.68817 74.6364 7.36257 74.3105 7.36257 73.9091C7.36257 73.5076 7.68817 73.1818 8.08984 73.1818H27.1538C28.4089 62.9349 37.1405 55 47.7262 55C56.0725 55 63.2652 59.933 66.5504 67.04C67.3808 66.7775 68.2644 66.6364 69.1808 66.6364C73.2477 66.6364 76.6637 69.4175 77.6331 73.1818H102.635C103.037 73.1818 103.363 73.5076 103.363 73.9091C103.363 74.3105 103.037 74.6364 102.635 74.6364H77.0615H77.0491C77.0418 74.6364 77.0353 74.6364 77.0288 74.6364C77.0258 74.6356 77.0229 74.6356 77.02 74.6356C76.6811 74.6225 76.3953 74.376 76.3335 74.0407C75.7117 70.656 72.7451 68.0909 69.1808 68.0909C66.9173 68.0909 64.8957 69.1244 63.5606 70.7476C63.3055 71.0575 62.8472 71.1018 62.537 70.8473C62.2267 70.592 62.1821 70.1338 62.4373 69.8233C63.1933 68.904 64.1344 68.1418 65.2037 67.5935C62.136 61.0131 55.4626 56.4545 47.7262 56.4545ZM0.817116 73.1818C0.415458 73.1818 0.0898438 73.5076 0.0898438 73.9091C0.0898438 74.3105 0.415458 74.6364 0.817116 74.6364H5.18075C5.58243 74.6364 5.90803 74.3105 5.90803 73.9091C5.90803 73.5076 5.58243 73.1818 5.18075 73.1818H0.817116Z" fill="#CAD3D9"/>
</g>
<path d="M67 68.091C59.3636 56.091 48.4545 53.5456 39 57.1819C52.0909 58.2728 60.7806 68.0699 61.9091 72.4546C64.4545 69.5456 66.2727 68.091 67 68.091Z" fill="black" fill-opacity="0.04"/>
<path d="M196.455 47.7273C191.038 36.0355 184.818 35.3637 179 37.9091C185.545 38.71 190.636 44.091 192.818 49.1818C193.182 48.4545 195.364 47.3636 196.455 47.7273Z" fill="black" fill-opacity="0.04"/>
<path d="M154.576 45.371H161.899H154.576ZM171.842 38.405H173.832H171.842ZM152.18 38.405H167.562H152.18Z" stroke="#0077CC" stroke-width="2.5" stroke-miterlimit="10" stroke-linecap="round" stroke-linejoin="round"/>
<path d="M73.971 65.0741H81.2934H73.971ZM61.7228 57.2125H77.1056H61.7228ZM52.7266 57.2125H56.5069H52.7266Z" stroke="#0077CC" stroke-width="2.5" stroke-miterlimit="10" stroke-linecap="round" stroke-linejoin="round"/>
<path d="M128.533 42.781L128.533 42.7815C129.672 44.3761 130.473 46.2022 130.932 48.2663C132.642 56.9467 126.131 65.2727 117.004 65.2727C110.834 65.2727 105.016 61.275 103.305 54.7728L103.305 54.7728L103.304 54.7684C102.274 50.9929 102.733 47.2321 104.671 43.9256L104.671 43.9256L104.674 43.9202C109.808 34.9087 122.594 34.4442 128.533 42.781ZM106.833 58.068L106.83 58.0779L106.828 58.0878C106.642 58.8306 107.178 59.7727 108.14 59.7727H125.867C126.305 59.7727 126.673 59.5106 126.896 59.2271C127.119 58.9424 127.288 58.5207 127.18 58.0878L127.177 58.0779L127.174 58.068C126.068 54.3055 123.549 51.5107 120.41 50.271C121.714 49.2739 122.585 47.7297 122.585 45.9182C122.585 42.7982 119.99 40.3364 117.004 40.3364C113.884 40.3364 111.422 42.9314 111.422 45.9182C111.422 47.7183 112.283 49.2544 113.572 50.252C110.433 51.4334 107.933 54.3297 106.833 58.068Z" fill="#E6F3FF" stroke="#0077CC"/>
<path d="M135.072 61.0052L135.46 61.2303L135.725 60.8694C137.286 58.7514 139.737 57.5273 142.296 57.5273C147.648 57.5273 151.531 62.539 150.087 67.6459L150.085 67.6532L150.083 67.6606C149.195 71.2132 145.973 73.6637 142.296 73.6637C139.29 73.6637 136.735 72.1108 135.285 69.6614C134.058 67.4259 133.841 64.7584 134.951 62.3161L135.138 61.904L134.747 61.6768L131.498 59.7905C131.557 59.6824 131.619 59.5706 131.683 59.4565L131.686 59.4505C131.743 59.3478 131.801 59.2432 131.858 59.1392L135.072 61.0052ZM147.287 68.8455V68.7692L147.264 68.6964C146.753 67.0617 145.458 65.9136 143.883 65.4727C144.785 64.9267 145.396 63.9352 145.396 62.8183C145.396 61.1239 143.99 59.7183 142.296 59.7183C140.601 59.7183 139.196 61.1239 139.196 62.8183C139.196 63.9775 139.854 65.0017 140.812 65.5329C139.371 66.0121 138.153 67.1277 137.575 68.6653C137.196 69.6236 137.971 70.5274 138.868 70.5274H145.959C146.15 70.5274 146.367 70.4821 146.561 70.3956C146.749 70.312 146.984 70.159 147.116 69.8964C147.215 69.698 147.252 69.4797 147.269 69.3089C147.287 69.1362 147.287 68.9677 147.287 68.8524V68.8455Z" fill="#E6F3FF" stroke="#0077CC"/>
<path d="M117.329 71.6819V72.1294L117.774 72.1789C122.799 72.7372 126.125 77.5297 124.793 82.3021L124.793 82.302L124.79 82.3152C123.902 85.8677 120.68 88.3183 117.002 88.3183C111.777 88.3183 108.094 83.5373 108.984 78.6287C109.653 75.1825 112.546 72.5133 116.103 72.1797L116.557 72.1372V71.6819V67.9274H116.56H116.563H116.566H116.57H116.573H116.576H116.579H116.583H116.586H116.589H116.592H116.596H116.599H116.602H116.605H116.608H116.612H116.615H116.618H116.621H116.624H116.627H116.631H116.634H116.637H116.64H116.643H116.646H116.649H116.652H116.655H116.659H116.662H116.665H116.668H116.671H116.674H116.677H116.68H116.683H116.686H116.689H116.692H116.695H116.698H116.701H116.704H116.707H116.71H116.713H116.716H116.719H116.722H116.725H116.728H116.731H116.734H116.737H116.74H116.743H116.746H116.748H116.751H116.754H116.757H116.76H116.763H116.766H116.769H116.772H116.775H116.777H116.78H116.783H116.786H116.789H116.792H116.795H116.798H116.8H116.803H116.806H116.809H116.812H116.815H116.817H116.82H116.823H116.826H116.829H116.832H116.834H116.837H116.84H116.843H116.846H116.848H116.851H116.854H116.857H116.86H116.862H116.865H116.868H116.871H116.874H116.876H116.879H116.882H116.885H116.888H116.89H116.893H116.896H116.899H116.901H116.904H116.907H116.91H116.913H116.915H116.918H116.921H116.924H116.926H116.929H116.932H116.935H116.937H116.94H116.943H116.946H116.949H116.951H116.954H116.957H116.96H116.962H116.965H116.968H116.971H116.974H116.976H116.979H116.982H116.985H116.987H116.99H116.993H116.996H116.999H117.001H117.004H117.007H117.01H117.012H117.015H117.018H117.021H117.024H117.026H117.029H117.032H117.035H117.038H117.04H117.043H117.046H117.049H117.052H117.055H117.057H117.06H117.063H117.066H117.069H117.071H117.074H117.077H117.08H117.083H117.086H117.089H117.091H117.094H117.097H117.1H117.103H117.106H117.109H117.112H117.114H117.117H117.12H117.123H117.126H117.129H117.132H117.135H117.138H117.141H117.143H117.146H117.149H117.152H117.155H117.158H117.161H117.164H117.167H117.17H117.173H117.176H117.179H117.182H117.185H117.188H117.191H117.194H117.197H117.2H117.203H117.206H117.209H117.212H117.215H117.218H117.221H117.224H117.228H117.231H117.234H117.237H117.24H117.243H117.246H117.249H117.252H117.255H117.259H117.262H117.265H117.268H117.271H117.274H117.278H117.281H117.284H117.287H117.29H117.294H117.297H117.3H117.303H117.307H117.31H117.313H117.316H117.32H117.323H117.326H117.329V71.6819ZM120.102 77.4728C120.102 75.7785 118.696 74.3728 117.002 74.3728C115.308 74.3728 113.902 75.7785 113.902 77.4728C113.902 78.6147 114.541 79.6254 115.475 80.1631C114.001 80.6281 112.751 81.7556 112.163 83.3198C111.784 84.2781 112.559 85.1819 113.457 85.1819H120.548C121.441 85.1819 122.213 84.2869 121.847 83.3338C121.341 81.7358 120.085 80.6055 118.551 80.1503C119.474 79.6093 120.102 78.6056 120.102 77.4728Z" fill="#E6F3FF" stroke="#0077CC"/>
<path d="M98.9349 40.9949L98.5473 40.7698L98.2814 41.1307C96.7207 43.2487 94.27 44.4728 91.7112 44.4728C86.4757 44.4728 82.8172 39.688 83.9254 34.9224L83.9272 34.9148L83.9287 34.9072C84.7094 31.0036 88.0505 28.3364 91.8293 28.3364C97.6215 28.3364 101.621 34.2346 99.1732 39.6862L98.9887 40.0972L99.3783 40.3234L102.571 42.1771C102.422 42.4028 102.279 42.6368 102.151 42.8623L98.9349 40.9949ZM94.8112 33.6273C94.8112 31.933 93.4055 30.5273 91.7112 30.5273C90.0168 30.5273 88.6112 31.933 88.6112 33.6273C88.6112 34.7692 89.2496 35.7799 90.1845 36.3177C88.7104 36.7826 87.4603 37.9101 86.872 39.4743C86.702 39.9041 86.7337 40.3728 86.9815 40.7445C87.2333 41.1222 87.6655 41.3364 88.1657 41.3364H95.2566C96.1499 41.3364 96.9218 40.4414 96.5557 39.4883C96.0499 37.8903 94.7938 36.76 93.26 36.3048C94.1829 35.7638 94.8112 34.7601 94.8112 33.6273Z" fill="#E6F3FF" stroke="#0077CC"/>
<path d="M135.725 41.1307L135.46 40.7698L135.072 40.9949L131.895 42.8397C131.801 42.6428 131.7 42.4546 131.584 42.278L134.747 40.4416L135.13 40.2192L134.955 39.8122C134.282 38.2412 134.062 36.5712 134.395 34.9072C135.176 31.0036 138.517 28.3364 142.296 28.3364C145.086 28.3364 147.866 29.789 149.306 32.337L149.306 32.337L149.31 32.3445C150.419 34.2289 150.645 36.3356 150.085 38.4637L150.085 38.4637L150.083 38.4697C149.195 42.0223 145.973 44.4728 142.296 44.4728C139.508 44.4728 137.291 43.2549 135.725 41.1307ZM145.396 33.6273C145.396 31.933 143.99 30.5273 142.296 30.5273C140.601 30.5273 139.196 31.933 139.196 33.6273C139.196 34.7692 139.834 35.7799 140.769 36.3177C139.295 36.7826 138.045 37.9102 137.457 39.4743C137.078 40.4327 137.853 41.3364 138.75 41.3364H145.841C146.734 41.3364 147.506 40.4414 147.14 39.4883C146.634 37.8903 145.378 36.76 143.845 36.3048C144.767 35.7638 145.396 34.7601 145.396 33.6273Z" fill="#E6F3FF" stroke="#0077CC"/>
<path d="M98.1566 60.8595L98.42 61.2359L98.8173 61.0052L102.048 59.1296C102.19 59.3875 102.311 59.6311 102.426 59.8886L99.1424 61.795L98.7466 62.0248L98.9407 62.4393C101.383 67.6565 97.4975 73.7819 91.5935 73.7819C86.3656 73.7819 82.6901 69.0004 83.6925 64.1003L83.6929 64.0981C84.4736 60.1945 87.8147 57.5273 91.5935 57.5273C94.1649 57.5273 96.6046 58.6424 98.1566 60.8595ZM94.8117 62.8183C94.8117 61.1239 93.406 59.7183 91.7117 59.7183C90.0174 59.7183 88.6117 61.1239 88.6117 62.8183C88.6117 63.9601 89.2501 64.9708 90.185 65.5086C88.7109 65.9736 87.4608 67.1011 86.8726 68.6653C86.4935 69.6236 87.2686 70.5273 88.1662 70.5273H95.2571C96.1504 70.5273 96.9223 69.6323 96.5563 68.6792C96.0505 67.0812 94.7943 65.9509 93.2606 65.4957C94.1834 64.9548 94.8117 63.951 94.8117 62.8183Z" fill="#E6F3FF" stroke="#0077CC"/>
<path d="M116.556 30.3182V29.8718L116.113 29.8214C111.217 29.2651 108.21 24.7061 109.101 20.2527C109.882 16.349 113.223 13.6819 117.002 13.6819C119.778 13.6819 122.45 15.1236 124.015 17.8065L124.016 17.8081C125.124 19.691 125.35 21.7959 124.792 23.9223C123.898 27.0447 121.225 29.4873 117.781 29.8206L117.329 29.8643V30.3182V34.0728H117.328H117.325H117.322H117.319H117.316H117.313H117.31H117.307H117.304H117.301H117.298H117.295H117.291H117.288H117.285H117.282H117.279H117.276H117.273H117.27H117.267H117.264H117.261H117.258H117.255H117.252H117.249H117.246H117.243H117.24H117.237H117.234H117.231H117.228H117.225H117.222H117.219H117.216H117.213H117.21H117.207H117.204H117.201H117.198H117.195H117.192H117.189H117.186H117.183H117.18H117.177H117.175H117.172H117.169H117.166H117.163H117.16H117.157H117.154H117.151H117.148H117.145H117.142H117.139H117.136H117.133H117.13H117.127H117.125H117.122H117.119H117.116H117.113H117.11H117.107H117.104H117.101H117.098H117.095H117.092H117.089H117.086H117.084H117.081H117.078H117.075H117.072H117.069H117.066H117.063H117.06H117.057H117.054H117.051H117.048H117.046H117.043H117.04H117.037H117.034H117.031H117.028H117.025H117.022H117.019H117.016H117.013H117.01H117.007H117.004H117.002H116.999H116.996H116.993H116.99H116.987H116.984H116.981H116.978H116.975H116.972H116.969H116.966H116.963H116.96H116.957H116.954H116.951H116.948H116.945H116.943H116.94H116.937H116.934H116.931H116.928H116.925H116.922H116.919H116.916H116.913H116.91H116.907H116.904H116.901H116.898H116.895H116.892H116.889H116.886H116.883H116.88H116.877H116.874H116.871H116.868H116.865H116.861H116.858H116.855H116.852H116.849H116.846H116.843H116.84H116.837H116.834H116.831H116.828H116.825H116.822H116.819H116.815H116.812H116.809H116.806H116.803H116.8H116.797H116.794H116.791H116.787H116.784H116.781H116.778H116.775H116.772H116.768H116.765H116.762H116.759H116.756H116.753H116.749H116.746H116.743H116.74H116.737H116.733H116.73H116.727H116.724H116.72H116.717H116.714H116.711H116.707H116.704H116.701H116.698H116.694H116.691H116.688H116.684H116.681H116.678H116.675H116.671H116.668H116.665H116.661H116.658H116.654H116.651H116.648H116.644H116.641H116.638H116.634H116.631H116.627H116.624H116.621H116.617H116.614H116.61H116.607H116.603H116.6H116.596H116.593H116.589H116.586H116.582H116.579H116.575H116.572H116.568H116.565H116.561H116.558H116.556V30.3182ZM120.102 18.9728C120.102 17.2785 118.696 15.8728 117.002 15.8728C115.307 15.8728 113.902 17.2785 113.902 18.9728C113.902 20.1146 114.54 21.1254 115.475 21.6631C114.001 22.1281 112.751 23.2556 112.162 24.8198C111.783 25.7781 112.559 26.6819 113.456 26.6819H120.547C121.44 26.6819 122.212 25.7869 121.846 24.8338C121.34 23.2358 120.084 22.1055 118.551 21.6502C119.473 21.1093 120.102 20.1056 120.102 18.9728Z" fill="#E6F3FF" stroke="#0077CC"/>
</g>
<defs>
<clipPath id="clip0">
<rect width="228" height="110" fill="white"/>
</clipPath>
</defs>
</svg>
