<svg width="232" height="109" viewBox="0 0 232 109" fill="none" xmlns="http://www.w3.org/2000/svg">
<mask id="mask0" mask-type="alpha" maskUnits="userSpaceOnUse" x="129" y="12" width="4" height="4">
<path d="M130.65 15.0241C131.465 15.0241 132.126 14.3632 132.126 13.5479C132.126 12.7325 131.465 12.0716 130.65 12.0716C129.834 12.0716 129.173 12.7325 129.173 13.5479C129.173 14.3632 129.834 15.0241 130.65 15.0241Z" fill="white"/>
</mask>
<g mask="url(#mask0)">
<path d="M130.65 15.0241C131.465 15.0241 132.126 14.3632 132.126 13.5479C132.126 12.7325 131.465 12.0716 130.65 12.0716C129.834 12.0716 129.173 12.7325 129.173 13.5479C129.173 14.3632 129.834 15.0241 130.65 15.0241Z" fill="#E6EBEE"/>
</g>
<mask id="mask1" mask-type="alpha" maskUnits="userSpaceOnUse" x="94" y="100" width="3" height="3">
<path d="M95.5882 102.862C96.1993 102.862 96.6954 102.366 96.6954 101.755C96.6954 101.143 96.1993 100.647 95.5882 100.647C94.977 100.647 94.481 101.143 94.481 101.755C94.481 102.366 94.977 102.862 95.5882 102.862Z" fill="white"/>
</mask>
<g mask="url(#mask1)">
<path d="M95.5882 102.862C96.1993 102.862 96.6954 102.366 96.6954 101.755C96.6954 101.143 96.1993 100.647 95.5882 100.647C94.977 100.647 94.481 101.143 94.481 101.755C94.481 102.366 94.977 102.862 95.5882 102.862Z" fill="#E6EBEE"/>
</g>
<mask id="mask2" mask-type="alpha" maskUnits="userSpaceOnUse" x="158" y="39" width="3" height="2">
<path d="M159.436 40.8587C159.844 40.8587 160.175 40.5282 160.175 40.1206C160.175 39.7129 159.844 39.3824 159.436 39.3824C159.029 39.3824 158.698 39.7129 158.698 40.1206C158.698 40.5282 159.029 40.8587 159.436 40.8587Z" fill="white"/>
</mask>
<g mask="url(#mask2)">
<path d="M159.436 40.8587C159.844 40.8587 160.175 40.5282 160.175 40.1206C160.175 39.7129 159.844 39.3824 159.436 39.3824C159.029 39.3824 158.698 39.7129 158.698 40.1206C158.698 40.5282 159.029 40.8587 159.436 40.8587Z" fill="#E6EBEE"/>
</g>
<mask id="mask3" mask-type="alpha" maskUnits="userSpaceOnUse" x="210" y="48" width="2" height="3">
<path d="M211.106 50.4545C211.513 50.4545 211.844 50.124 211.844 49.7163C211.844 49.3087 211.513 48.9782 211.106 48.9782C210.698 48.9782 210.368 49.3087 210.368 49.7163C210.368 50.124 210.698 50.4545 211.106 50.4545Z" fill="white"/>
</mask>
<g mask="url(#mask3)">
<path d="M211.106 50.4545C211.513 50.4545 211.844 50.124 211.844 49.7163C211.844 49.3087 211.513 48.9782 211.106 48.9782C210.698 48.9782 210.368 49.3087 210.368 49.7163C210.368 50.124 210.698 50.4545 211.106 50.4545Z" fill="#E6EBEE"/>
</g>
<mask id="mask4" mask-type="alpha" maskUnits="userSpaceOnUse" x="36" y="79" width="3" height="3">
<path d="M37.6449 81.456C38.0525 81.456 38.383 81.1253 38.383 80.7179C38.383 80.3104 38.0525 79.9797 37.6449 79.9797C37.2372 79.9797 36.9067 80.3104 36.9067 80.7179C36.9067 81.1253 37.2372 81.456 37.6449 81.456Z" fill="white"/>
</mask>
<g mask="url(#mask4)">
<path d="M37.6449 81.456C38.0525 81.456 38.383 81.1253 38.383 80.7179C38.383 80.3104 38.0525 79.9797 37.6449 79.9797C37.2372 79.9797 36.9067 80.3104 36.9067 80.7179C36.9067 81.1253 37.2372 81.456 37.6449 81.456Z" fill="#E6EBEE"/>
</g>
<mask id="mask5" mask-type="alpha" maskUnits="userSpaceOnUse" x="145" y="106" width="2" height="3">
<path d="M146.15 108.029C146.558 108.029 146.888 107.698 146.888 107.291C146.888 106.883 146.558 106.553 146.15 106.553C145.743 106.553 145.412 106.883 145.412 107.291C145.412 107.698 145.743 108.029 146.15 108.029Z" fill="white"/>
</mask>
<g mask="url(#mask5)">
<path d="M146.15 108.029C146.558 108.029 146.888 107.698 146.888 107.291C146.888 106.883 146.558 106.553 146.15 106.553C145.743 106.553 145.412 106.883 145.412 107.291C145.412 107.698 145.743 108.029 146.15 108.029Z" fill="#E6EBEE"/>
</g>
<mask id="mask6" mask-type="alpha" maskUnits="userSpaceOnUse" x="52" y="95" width="5" height="5">
<path d="M54.6216 95.4806C54.8743 95.4806 54.9879 96.294 55.5415 96.8476C56.0951 97.4012 56.836 97.4433 56.836 97.695C56.836 97.9467 56.0901 98.0596 55.5365 98.6132C54.9829 99.1668 54.9418 99.9094 54.6216 99.9094C54.3014 99.9094 54.2435 99.1292 53.6899 98.5756C53.1363 98.022 52.4072 97.971 52.4072 97.695C52.4072 97.4189 53.075 97.4108 53.654 96.8321C54.2329 96.2527 54.369 95.4806 54.6216 95.4806Z" fill="white"/>
</mask>
<g mask="url(#mask6)">
<path d="M54.6216 95.4806C54.8743 95.4806 54.9879 96.294 55.5415 96.8476C56.0951 97.4012 56.836 97.4433 56.836 97.695C56.836 97.9467 56.0901 98.0596 55.5365 98.6132C54.9829 99.1668 54.9418 99.9094 54.6216 99.9094C54.3014 99.9094 54.2435 99.1292 53.6899 98.5756C53.1363 98.022 52.4072 97.971 52.4072 97.695C52.4072 97.4189 53.075 97.4108 53.654 96.8321C54.2329 96.2527 54.369 95.4806 54.6216 95.4806Z" fill="#FFDB63"/>
</g>
<mask id="mask7" mask-type="alpha" maskUnits="userSpaceOnUse" x="186" y="74" width="5" height="6">
<path d="M188.224 74.8129C188.476 74.8129 188.59 75.6263 189.143 76.1799C189.697 76.7335 190.438 76.7756 190.438 77.0273C190.438 77.279 189.692 77.3919 189.138 77.9455C188.585 78.4991 188.544 79.2417 188.224 79.2417C187.903 79.2417 187.846 78.4614 187.292 77.9079C186.739 77.3543 186.009 77.3033 186.009 77.0273C186.009 76.7512 186.677 76.7431 187.256 76.1644C187.835 75.585 187.971 74.8129 188.224 74.8129Z" fill="white"/>
</mask>
<g mask="url(#mask7)">
<path d="M188.224 74.8129C188.476 74.8129 188.59 75.6263 189.143 76.1799C189.697 76.7335 190.438 76.7756 190.438 77.0273C190.438 77.279 189.692 77.3919 189.138 77.9455C188.585 78.4991 188.544 79.2417 188.224 79.2417C187.903 79.2417 187.846 78.4614 187.292 77.9079C186.739 77.3543 186.009 77.3033 186.009 77.0273C186.009 76.7512 186.677 76.7431 187.256 76.1644C187.835 75.585 187.971 74.8129 188.224 74.8129Z" fill="#FFDB63"/>
</g>
<mask id="mask8" mask-type="alpha" maskUnits="userSpaceOnUse" x="98" y="7" width="5" height="6">
<path d="M100.386 7.64276C100.638 7.64276 100.752 8.45604 101.305 9.00963C101.859 9.56323 102.6 9.6056 102.6 9.85716C102.6 10.1087 101.854 10.2215 101.3 10.7751C100.747 11.3287 100.706 12.0716 100.386 12.0716C100.065 12.0716 100.008 11.2912 99.4543 10.7376C98.9007 10.184 98.1714 10.1329 98.1714 9.85716C98.1714 9.58139 98.8394 9.57298 99.4181 8.99406C99.9968 8.41507 100.133 7.64276 100.386 7.64276Z" fill="white"/>
</mask>
<g mask="url(#mask8)">
<path d="M100.386 7.64276C100.638 7.64276 100.752 8.45604 101.305 9.00963C101.859 9.56323 102.6 9.6056 102.6 9.85716C102.6 10.1087 101.854 10.2215 101.3 10.7751C100.747 11.3287 100.706 12.0716 100.386 12.0716C100.065 12.0716 100.008 11.2912 99.4543 10.7376C98.9007 10.184 98.1714 10.1329 98.1714 9.85716C98.1714 9.58139 98.8394 9.57298 99.4181 8.99406C99.9968 8.41507 100.133 7.64276 100.386 7.64276Z" fill="#FFDB63"/>
</g>
<mask id="mask9" mask-type="alpha" maskUnits="userSpaceOnUse" x="59" y="36" width="6" height="5">
<path d="M62.003 36.4299C62.2554 36.4299 62.3691 37.2432 62.9227 37.7968C63.4763 38.3504 64.2174 38.3928 64.2174 38.6443C64.2174 38.8959 63.4711 39.0087 62.9175 39.5623C62.3639 40.1159 62.3233 40.8587 62.003 40.8587C61.6826 40.8587 61.6251 40.0784 61.0715 39.5248C60.5176 38.9712 59.7886 38.9201 59.7886 38.6443C59.7886 38.3686 60.4564 38.3601 61.0353 37.7812C61.614 37.2022 61.7505 36.4299 62.003 36.4299Z" fill="white"/>
</mask>
<g mask="url(#mask9)">
<path d="M62.003 36.4299C62.2554 36.4299 62.3691 37.2432 62.9227 37.7968C63.4763 38.3504 64.2174 38.3928 64.2174 38.6443C64.2174 38.8959 63.4711 39.0087 62.9175 39.5623C62.3639 40.1159 62.3233 40.8587 62.003 40.8587C61.6826 40.8587 61.6251 40.0784 61.0715 39.5248C60.5176 38.9712 59.7886 38.9201 59.7886 38.6443C59.7886 38.3686 60.4564 38.3601 61.0353 37.7812C61.614 37.2022 61.7505 36.4299 62.003 36.4299Z" fill="#FFDB63"/>
</g>
<mask id="mask10" mask-type="alpha" maskUnits="userSpaceOnUse" x="160" y="0" width="8" height="8">
<path d="M163.865 0.261475C164.287 0.261475 164.476 1.61698 165.399 2.53965C166.321 3.46231 167.556 3.53288 167.556 3.95214C167.556 4.3714 166.313 4.55932 165.39 5.48199C164.468 6.40465 164.399 7.6428 163.865 7.6428C163.332 7.6428 163.235 6.34221 162.312 5.41954C161.39 4.49688 160.175 4.41177 160.175 3.95214C160.175 3.4925 161.288 3.47855 162.253 2.51359C163.217 1.54863 163.444 0.261475 163.865 0.261475Z" fill="white"/>
</mask>
<g mask="url(#mask10)">
<path d="M163.865 0.261475C164.287 0.261475 164.476 1.61698 165.399 2.53965C166.321 3.46231 167.556 3.53288 167.556 3.95214C167.556 4.3714 166.313 4.55932 165.39 5.48199C164.468 6.40465 164.399 7.6428 163.865 7.6428C163.332 7.6428 163.235 6.34221 162.312 5.41954C161.39 4.49688 160.175 4.41177 160.175 3.95214C160.175 3.4925 161.288 3.47855 162.253 2.51359C163.217 1.54863 163.444 0.261475 163.865 0.261475Z" fill="#FFDB63"/>
</g>
<mask id="mask11" mask-type="alpha" maskUnits="userSpaceOnUse" x="143" y="81" width="66" height="11">
<path d="M171.735 86.1919C172.603 84.2683 174.538 82.9323 176.783 82.9323C178.409 82.9323 179.872 83.6335 180.885 84.751C180.022 85.019 179.219 85.4323 178.545 85.9468C178.223 86.1963 178.164 86.6599 178.413 86.9824C178.663 87.305 179.126 87.364 179.449 87.1153C180.241 86.4945 181.123 86.093 182.127 85.9468C182.166 85.9476 182.206 85.9453 182.245 85.9402C182.519 85.9018 182.773 85.8841 183.057 85.8848C185.866 85.8848 188.219 87.8475 188.816 90.4767C188.895 90.8244 189.207 91.0591 189.55 91.0517H201.51C201.918 91.0517 202.248 90.7211 202.248 90.3136C202.248 89.9062 201.918 89.5755 201.51 89.5755H190.1C189.16 86.5809 186.362 84.4086 183.057 84.4086C182.879 84.4086 182.696 84.4159 182.515 84.4292C181.247 82.6319 179.152 81.456 176.783 81.456C174.096 81.456 171.763 82.967 170.586 85.1836C168.13 85.4567 166.131 87.2349 165.528 89.5755H152.055C151.648 89.5755 151.317 89.9062 151.317 90.3136C151.317 90.7211 151.648 91.0517 152.055 91.0517H166.132C166.499 91.0517 166.811 90.7816 166.863 90.4184C167.163 88.3236 168.93 86.7019 171.088 86.6259C171.369 86.6156 171.619 86.448 171.735 86.1919ZM203.725 90.3136C203.725 89.9062 204.055 89.5755 204.463 89.5755H207.415C207.823 89.5755 208.153 89.9062 208.153 90.3136C208.153 90.7211 207.823 91.0517 207.415 91.0517H204.463C204.055 91.0517 203.725 90.7211 203.725 90.3136ZM143.936 89.5755C143.528 89.5755 143.198 89.9062 143.198 90.3136C143.198 90.7211 143.528 91.0517 143.936 91.0517H148.365C148.772 91.0517 149.103 90.7211 149.103 90.3136C149.103 89.9062 148.772 89.5755 148.365 89.5755H143.936Z" fill="white"/>
</mask>
<g mask="url(#mask11)">
<path d="M171.735 86.1919C172.603 84.2683 174.538 82.9323 176.783 82.9323C178.409 82.9323 179.872 83.6335 180.885 84.751C180.022 85.019 179.219 85.4323 178.545 85.9468C178.223 86.1963 178.164 86.6599 178.413 86.9824C178.663 87.305 179.126 87.364 179.449 87.1153C180.241 86.4945 181.123 86.093 182.127 85.9468C182.166 85.9476 182.206 85.9453 182.245 85.9402C182.519 85.9018 182.773 85.8841 183.057 85.8848C185.866 85.8848 188.219 87.8475 188.816 90.4767C188.895 90.8244 189.207 91.0591 189.55 91.0517H201.51C201.918 91.0517 202.248 90.7211 202.248 90.3136C202.248 89.9062 201.918 89.5755 201.51 89.5755H190.1C189.16 86.5809 186.362 84.4086 183.057 84.4086C182.879 84.4086 182.696 84.4159 182.515 84.4292C181.247 82.6319 179.152 81.456 176.783 81.456C174.096 81.456 171.763 82.967 170.586 85.1836C168.13 85.4567 166.131 87.2349 165.528 89.5755H152.055C151.648 89.5755 151.317 89.9062 151.317 90.3136C151.317 90.7211 151.648 91.0517 152.055 91.0517H166.132C166.499 91.0517 166.811 90.7816 166.863 90.4184C167.163 88.3236 168.93 86.7019 171.088 86.6259C171.369 86.6156 171.619 86.448 171.735 86.1919ZM203.725 90.3136C203.725 89.9062 204.055 89.5755 204.463 89.5755H207.415C207.823 89.5755 208.153 89.9062 208.153 90.3136C208.153 90.7211 207.823 91.0517 207.415 91.0517H204.463C204.055 91.0517 203.725 90.7211 203.725 90.3136ZM143.936 89.5755C143.528 89.5755 143.198 89.9062 143.198 90.3136C143.198 90.7211 143.528 91.0517 143.936 91.0517H148.365C148.772 91.0517 149.103 90.7211 149.103 90.3136C149.103 89.9062 148.772 89.5755 148.365 89.5755H143.936Z" fill="#E6EBEE"/>
</g>
<mask id="mask12" mask-type="alpha" maskUnits="userSpaceOnUse" x="44" y="36" width="72" height="12">
<path d="M82.3019 37.9062C78.8371 37.9062 76.0278 40.7152 76.0278 44.1803C76.0278 44.588 75.6971 44.9185 75.2896 44.9185C74.8822 44.9185 74.5515 44.588 74.5515 44.1803C74.5515 43.6135 74.612 43.0609 74.7279 42.5287C72.9165 43.084 71.599 44.7702 71.599 46.7638C71.599 47.1715 71.2683 47.5019 70.8608 47.5019H59.0507C58.6431 47.5019 58.3126 47.1715 58.3126 46.7638C58.3126 46.3561 58.6431 46.0257 59.0507 46.0257H70.1685C70.5006 43.3594 72.6102 41.2455 75.2749 40.9063C76.509 38.2622 79.1914 36.4299 82.3019 36.4299C85.949 36.4299 89.0064 38.948 89.8323 42.3404C89.9069 42.337 89.9799 42.3352 90.0523 42.335C92.3936 42.335 94.3696 43.8913 95.0052 46.0257H114.411C114.818 46.0257 115.149 46.3561 115.149 46.7638C115.149 47.1715 114.818 47.5019 114.411 47.5019H94.4198C94.0596 47.5019 93.7518 47.2415 93.692 46.8859C93.399 45.141 91.8806 43.8113 90.0523 43.8113C89.8087 43.8104 89.6042 43.8298 89.3732 43.8734C89.1761 43.91 88.9724 43.8648 88.8093 43.7483C88.6461 43.6317 88.5376 43.4539 88.5081 43.2554C88.5052 43.2331 88.5015 43.2109 88.4985 43.1888C88.0232 40.1951 85.4294 37.9062 82.3019 37.9062ZM44.2881 46.7638C44.2881 46.3561 44.6185 46.0257 45.0262 46.0257H53.1457C53.5533 46.0257 53.8838 46.3561 53.8838 46.7638C53.8838 47.1715 53.5533 47.5019 53.1457 47.5019H45.0262C44.6185 47.5019 44.2881 47.1715 44.2881 46.7638ZM53.1457 41.5969C52.738 41.5969 52.4075 41.9273 52.4075 42.335C52.4075 42.7427 52.738 43.0731 53.1457 43.0731H58.3126C58.7203 43.0731 59.0507 42.7427 59.0507 42.335C59.0507 41.9273 58.7203 41.5969 58.3126 41.5969H53.1457Z" fill="white"/>
</mask>
<g mask="url(#mask12)">
<path d="M82.3019 37.9062C78.8371 37.9062 76.0278 40.7152 76.0278 44.1803C76.0278 44.588 75.6971 44.9185 75.2896 44.9185C74.8822 44.9185 74.5515 44.588 74.5515 44.1803C74.5515 43.6135 74.612 43.0609 74.7279 42.5287C72.9165 43.084 71.599 44.7702 71.599 46.7638C71.599 47.1715 71.2683 47.5019 70.8608 47.5019H59.0507C58.6431 47.5019 58.3126 47.1715 58.3126 46.7638C58.3126 46.3561 58.6431 46.0257 59.0507 46.0257H70.1685C70.5006 43.3594 72.6102 41.2455 75.2749 40.9063C76.509 38.2622 79.1914 36.4299 82.3019 36.4299C85.949 36.4299 89.0064 38.948 89.8323 42.3404C89.9069 42.337 89.9799 42.3352 90.0523 42.335C92.3936 42.335 94.3696 43.8913 95.0052 46.0257H114.411C114.818 46.0257 115.149 46.3561 115.149 46.7638C115.149 47.1715 114.818 47.5019 114.411 47.5019H94.4198C94.0596 47.5019 93.7518 47.2415 93.692 46.8859C93.399 45.141 91.8806 43.8113 90.0523 43.8113C89.8087 43.8104 89.6042 43.8298 89.3732 43.8734C89.1761 43.91 88.9724 43.8648 88.8093 43.7483C88.6461 43.6317 88.5376 43.4539 88.5081 43.2554C88.5052 43.2331 88.5015 43.2109 88.4985 43.1888C88.0232 40.1951 85.4294 37.9062 82.3019 37.9062ZM44.2881 46.7638C44.2881 46.3561 44.6185 46.0257 45.0262 46.0257H53.1457C53.5533 46.0257 53.8838 46.3561 53.8838 46.7638C53.8838 47.1715 53.5533 47.5019 53.1457 47.5019H45.0262C44.6185 47.5019 44.2881 47.1715 44.2881 46.7638ZM53.1457 41.5969C52.738 41.5969 52.4075 41.9273 52.4075 42.335C52.4075 42.7427 52.738 43.0731 53.1457 43.0731H58.3126C58.7203 43.0731 59.0507 42.7427 59.0507 42.335C59.0507 41.9273 58.7203 41.5969 58.3126 41.5969H53.1457Z" fill="#E6EBEE"/>
</g>
<mask id="mask13" mask-type="alpha" maskUnits="userSpaceOnUse" x="150" y="36" width="82" height="19">
<path d="M175.374 41.5076C174.667 42.432 174.081 43.4545 173.643 44.5514C173.582 44.5501 173.521 44.5495 173.461 44.5494C168.818 44.5494 165.009 48.1223 164.634 52.6688H151.317C150.91 52.6688 150.579 52.9993 150.579 53.407C150.579 53.8146 150.91 54.1451 151.317 54.1451H165.342C165.749 54.1451 166.08 53.8146 166.08 53.407C166.08 49.4338 169.219 46.1938 173.153 46.032C172.872 47.09 172.723 48.2011 172.723 49.3472C172.723 49.7549 173.054 50.0854 173.461 50.0854C173.869 50.0854 174.199 49.7549 174.199 49.3472C174.199 46.7719 175.05 44.3953 176.486 42.4832C178.574 39.7036 181.898 37.9062 185.64 37.9062C185.796 37.9062 185.951 37.9093 186.105 37.9154C191.624 38.136 196.138 42.2667 196.951 47.6129L196.954 47.6317C197.011 48.0151 197.356 48.2885 197.742 48.2578C197.894 48.2455 198.034 48.2399 198.189 48.24C201.137 48.24 203.547 50.5445 203.715 53.4497C203.738 53.8401 204.061 54.1451 204.452 54.1451H220.702C221.109 54.1451 221.44 53.8146 221.44 53.407C221.44 52.9993 221.109 52.6688 220.702 52.6688H205.114C204.588 49.3573 201.746 46.818 198.299 46.7647C197.103 40.868 191.89 36.4299 185.64 36.4299C181.454 36.4299 177.734 38.4213 175.374 41.5076ZM224.392 52.6688C223.985 52.6688 223.654 52.9993 223.654 53.407C223.654 53.8146 223.985 54.1451 224.392 54.1451H231.036C231.443 54.1451 231.774 53.8146 231.774 53.407C231.774 52.9993 231.443 52.6688 231.036 52.6688H224.392Z" fill="white"/>
</mask>
<g mask="url(#mask13)">
<path d="M175.374 41.5076C174.667 42.432 174.081 43.4545 173.643 44.5514C173.582 44.5501 173.521 44.5495 173.461 44.5494C168.818 44.5494 165.009 48.1223 164.634 52.6688H151.317C150.91 52.6688 150.579 52.9993 150.579 53.407C150.579 53.8146 150.91 54.1451 151.317 54.1451H165.342C165.749 54.1451 166.08 53.8146 166.08 53.407C166.08 49.4338 169.219 46.1938 173.153 46.032C172.872 47.09 172.723 48.2011 172.723 49.3472C172.723 49.7549 173.054 50.0854 173.461 50.0854C173.869 50.0854 174.199 49.7549 174.199 49.3472C174.199 46.7719 175.05 44.3953 176.486 42.4832C178.574 39.7036 181.898 37.9062 185.64 37.9062C185.796 37.9062 185.951 37.9093 186.105 37.9154C191.624 38.136 196.138 42.2667 196.951 47.6129L196.954 47.6317C197.011 48.0151 197.356 48.2885 197.742 48.2578C197.894 48.2455 198.034 48.2399 198.189 48.24C201.137 48.24 203.547 50.5445 203.715 53.4497C203.738 53.8401 204.061 54.1451 204.452 54.1451H220.702C221.109 54.1451 221.44 53.8146 221.44 53.407C221.44 52.9993 221.109 52.6688 220.702 52.6688H205.114C204.588 49.3573 201.746 46.818 198.299 46.7647C197.103 40.868 191.89 36.4299 185.64 36.4299C181.454 36.4299 177.734 38.4213 175.374 41.5076ZM224.392 52.6688C223.985 52.6688 223.654 52.9993 223.654 53.407C223.654 53.8146 223.985 54.1451 224.392 54.1451H231.036C231.443 54.1451 231.774 53.8146 231.774 53.407C231.774 52.9993 231.443 52.6688 231.036 52.6688H224.392Z" fill="#CAD3D9"/>
</g>
<mask id="mask14" mask-type="alpha" maskUnits="userSpaceOnUse" x="0" y="55" width="105" height="21">
<path d="M48.3477 57.0976C38.1445 57.0976 29.7653 64.91 28.867 74.8792C28.8326 75.2593 28.5138 75.5509 28.1318 75.5509H8.11945C7.71178 75.5509 7.38132 75.2202 7.38132 74.8128C7.38132 74.4053 7.71178 74.0746 8.11945 74.0746H27.468C28.7419 63.6747 37.6039 55.6213 48.3477 55.6213C56.8186 55.6213 64.1187 60.628 67.4529 67.8411C68.2957 67.5747 69.1925 67.4315 70.1226 67.4315C74.2502 67.4315 77.7172 70.2541 78.7011 74.0746H104.077C104.484 74.0746 104.815 74.4053 104.815 74.8128C104.815 75.2202 104.484 75.5509 104.077 75.5509H78.121H78.1084C78.101 75.5509 78.0944 75.5509 78.0877 75.5509C78.0848 75.5502 78.0818 75.5502 78.0789 75.5502C77.7349 75.5369 77.4448 75.2867 77.3821 74.9464C76.751 71.5111 73.7402 68.9077 70.1226 68.9077C67.8253 68.9077 65.7735 69.9566 64.4185 71.6041C64.1596 71.9186 63.6945 71.9636 63.3796 71.7052C63.0647 71.4462 63.0194 70.9811 63.2784 70.666C64.0457 69.733 65.0009 68.9594 66.0861 68.4028C62.9726 61.7242 56.1996 57.0976 48.3477 57.0976ZM0.738132 74.0746C0.330477 74.0746 0 74.4053 0 74.8128C0 75.2202 0.330477 75.5509 0.738132 75.5509H5.16693C5.5746 75.5509 5.90506 75.2202 5.90506 74.8128C5.90506 74.4053 5.5746 74.0746 5.16693 74.0746H0.738132Z" fill="white"/>
</mask>
<g mask="url(#mask14)">
<path d="M48.3477 57.0976C38.1445 57.0976 29.7653 64.91 28.867 74.8792C28.8326 75.2593 28.5138 75.5509 28.1318 75.5509H8.11945C7.71178 75.5509 7.38132 75.2202 7.38132 74.8128C7.38132 74.4053 7.71178 74.0746 8.11945 74.0746H27.468C28.7419 63.6747 37.6039 55.6213 48.3477 55.6213C56.8186 55.6213 64.1187 60.628 67.4529 67.8411C68.2957 67.5747 69.1925 67.4315 70.1226 67.4315C74.2502 67.4315 77.7172 70.2541 78.7011 74.0746H104.077C104.484 74.0746 104.815 74.4053 104.815 74.8128C104.815 75.2202 104.484 75.5509 104.077 75.5509H78.121H78.1084C78.101 75.5509 78.0944 75.5509 78.0877 75.5509C78.0848 75.5502 78.0818 75.5502 78.0789 75.5502C77.7349 75.5369 77.4448 75.2867 77.3821 74.9464C76.751 71.5111 73.7402 68.9077 70.1226 68.9077C67.8253 68.9077 65.7735 69.9566 64.4185 71.6041C64.1596 71.9186 63.6945 71.9636 63.3796 71.7052C63.0647 71.4462 63.0194 70.9811 63.2784 70.666C64.0457 69.733 65.0009 68.9594 66.0861 68.4028C62.9726 61.7242 56.1996 57.0976 48.3477 57.0976ZM0.738132 74.0746C0.330477 74.0746 0 74.4053 0 74.8128C0 75.2202 0.330477 75.5509 0.738132 75.5509H5.16693C5.5746 75.5509 5.90506 75.2202 5.90506 74.8128C5.90506 74.4053 5.5746 74.0746 5.16693 74.0746H0.738132Z" fill="#CAD3D9"/>
</g>
<path d="M67.9083 68.9078C60.1579 56.7287 49.086 54.1452 39.4902 57.8359C52.7766 58.9431 61.596 68.8864 62.7414 73.3366C65.3249 70.3841 67.1702 68.9078 67.9083 68.9078Z" fill="black" fill-opacity="0.04"/>
<path d="M199.296 48.24C193.798 36.3737 187.486 35.6918 181.581 38.2753C188.224 39.0881 193.391 44.5494 195.605 49.7163C195.974 48.9781 198.189 47.8709 199.296 48.24Z" fill="black" fill-opacity="0.04"/>
<path d="M57.5197 33.6175C57.4064 32.8951 57.5842 32.1573 58.014 31.5658C58.4438 30.9742 59.0906 30.5772 59.8126 30.4617L136.266 18.2225C136.626 18.1651 136.992 18.1791 137.346 18.2638C137.7 18.3485 138.033 18.5022 138.327 18.7161C138.622 18.93 138.871 19.1999 139.06 19.5102C139.25 19.8206 139.376 20.1653 139.432 20.5247L146.912 68.2549C147.025 68.9772 146.847 69.7151 146.417 70.3066C145.987 70.8982 145.341 71.2952 144.619 71.4107L68.1649 83.648C67.8057 83.7055 67.4388 83.6914 67.0851 83.6067C66.7314 83.522 66.3979 83.3683 66.1038 83.1544C65.8096 82.9405 65.5606 82.6707 65.371 82.3603C65.1814 82.0499 65.055 81.7052 64.9989 81.3459L57.5197 33.6175Z" fill="white"/>
<path d="M68.6311 83.3957C67.7357 83.3843 66.8744 83.0501 66.2055 82.4547C65.5366 81.8592 65.105 81.0424 64.99 80.1543L58.0596 34.6259C57.8946 33.6374 58.1235 32.6236 58.6973 31.8019C59.2711 30.9802 60.144 30.4161 61.1289 30.2306L134.961 18.0623C135.488 17.9749 136.028 18.007 136.541 18.1563C137.054 18.3057 137.527 18.5684 137.925 18.9251C138.605 19.5301 139.051 20.3547 139.185 21.2549L139.595 23.9457L139.601 23.9908C139.724 24.811 139.833 25.5259 139.927 26.1355L72.1461 82.8607L69.215 83.3441C69.0221 83.3772 68.8268 83.3944 68.6311 83.3957Z" stroke="#0077CC" stroke-width="2.5" stroke-miterlimit="10" stroke-linecap="round"/>
<path d="M61.2171 35.7245C61.1594 35.3652 61.1732 34.9981 61.2578 34.6442C61.3424 34.2903 61.496 33.9566 61.71 33.6622C61.9239 33.3679 62.1938 33.1187 62.5043 32.929C62.8148 32.7392 63.1597 32.6127 63.5193 32.5567L133.283 21.662C134.005 21.5492 134.742 21.727 135.333 22.1563C135.924 22.5857 136.321 23.2317 136.437 23.9531L143.214 66.1461C143.272 66.5054 143.258 66.8725 143.174 67.2264C143.089 67.5803 142.935 67.914 142.722 68.2083C142.508 68.5027 142.238 68.7519 141.927 68.9416C141.617 69.1313 141.272 69.2578 140.912 69.3139L71.1486 80.2086C70.4268 80.3214 69.6897 80.1436 69.0986 79.7142C68.5075 79.2848 68.1106 78.6388 67.9946 77.9175L61.2171 35.7245Z" fill="#AFD7FD"/>
<path d="M153.784 35.5108H79.1942C77.1599 35.5108 75.5107 37.1599 75.5107 39.1943V86.1583C75.5107 88.1926 77.1599 89.8417 79.1942 89.8417H153.784C155.818 89.8417 157.468 88.1926 157.468 86.1583V39.1943C157.468 37.1599 155.818 35.5108 153.784 35.5108Z" fill="white"/>
<path d="M153.784 36.6619H79.194C77.7954 36.6619 76.6616 37.7957 76.6616 39.1943V86.1583C76.6616 87.5569 77.7954 88.6907 79.194 88.6907H153.784C155.183 88.6907 156.316 87.5569 156.316 86.1583V39.1943C156.316 37.7957 155.183 36.6619 153.784 36.6619Z" stroke="#0077CC" stroke-width="2.5" stroke-miterlimit="10"/>
<path d="M155.166 47.482H77.813V60.3741H155.166V47.482Z" fill="#AFD7FD"/>
<path d="M84.4938 76.9496H110.562H84.4938ZM77.6582 59.4532H150.259H77.6582ZM95.1546 47.482H155.784H95.1546ZM83.8842 47.482H90.5144H83.8842Z" stroke="#0077CC" stroke-width="2.5" stroke-miterlimit="10" stroke-linecap="round" stroke-linejoin="round"/>
</svg>
