<svg width="276" height="128" viewBox="0 0 276 128" fill="none" xmlns="http://www.w3.org/2000/svg">
<mask id="mask0" mask-type="alpha" maskUnits="userSpaceOnUse" x="153" y="14" width="4" height="4">
<path d="M155.178 17.5343C156.147 17.5343 156.931 16.7492 156.931 15.7808C156.931 14.8124 156.147 14.0274 155.178 14.0274C154.209 14.0274 153.425 14.8124 153.425 15.7808C153.425 16.7492 154.209 17.5343 155.178 17.5343Z" fill="white"/>
</mask>
<g mask="url(#mask0)">
<path d="M155.178 17.5343C156.147 17.5343 156.931 16.7492 156.931 15.7808C156.931 14.8124 156.147 14.0274 155.178 14.0274C154.209 14.0274 153.425 14.8124 153.425 15.7808C153.425 16.7492 154.209 17.5343 155.178 17.5343Z" fill="#E6EBEE"/>
</g>
<mask id="mask1" mask-type="alpha" maskUnits="userSpaceOnUse" x="112" y="119" width="3" height="3">
<path d="M113.534 121.863C114.26 121.863 114.849 121.274 114.849 120.548C114.849 119.822 114.26 119.233 113.534 119.233C112.808 119.233 112.219 119.822 112.219 120.548C112.219 121.274 112.808 121.863 113.534 121.863Z" fill="white"/>
</mask>
<g mask="url(#mask1)">
<path d="M113.534 121.863C114.26 121.863 114.849 121.274 114.849 120.548C114.849 119.822 114.26 119.233 113.534 119.233C112.808 119.233 112.219 119.822 112.219 120.548C112.219 121.274 112.808 121.863 113.534 121.863Z" fill="#E6EBEE"/>
</g>
<mask id="mask2" mask-type="alpha" maskUnits="userSpaceOnUse" x="188" y="46" width="3" height="3">
<path d="M189.37 48.2191C189.854 48.2191 190.247 47.8266 190.247 47.3424C190.247 46.8582 189.854 46.4657 189.37 46.4657C188.886 46.4657 188.493 46.8582 188.493 47.3424C188.493 47.8266 188.886 48.2191 189.37 48.2191Z" fill="white"/>
</mask>
<g mask="url(#mask2)">
<path d="M189.37 48.2191C189.854 48.2191 190.247 47.8266 190.247 47.3424C190.247 46.8582 189.854 46.4657 189.37 46.4657C188.886 46.4657 188.493 46.8582 188.493 47.3424C188.493 47.8266 188.886 48.2191 189.37 48.2191Z" fill="#E6EBEE"/>
</g>
<mask id="mask3" mask-type="alpha" maskUnits="userSpaceOnUse" x="249" y="57" width="3" height="3">
<path d="M250.74 59.6165C251.224 59.6165 251.616 59.224 251.616 58.7397C251.616 58.2555 251.224 57.863 250.74 57.863C250.256 57.863 249.863 58.2555 249.863 58.7397C249.863 59.224 250.256 59.6165 250.74 59.6165Z" fill="white"/>
</mask>
<g mask="url(#mask3)">
<path d="M250.74 59.6165C251.224 59.6165 251.616 59.224 251.616 58.7397C251.616 58.2555 251.224 57.863 250.74 57.863C250.256 57.863 249.863 58.2555 249.863 58.7397C249.863 59.224 250.256 59.6165 250.74 59.6165Z" fill="#E6EBEE"/>
</g>
<mask id="mask4" mask-type="alpha" maskUnits="userSpaceOnUse" x="43" y="94" width="3" height="3">
<path d="M44.7123 96.4383C45.1965 96.4383 45.589 96.0455 45.589 95.5616C45.589 95.0776 45.1965 94.6849 44.7123 94.6849C44.2281 94.6849 43.8356 95.0776 43.8356 95.5616C43.8356 96.0455 44.2281 96.4383 44.7123 96.4383Z" fill="white"/>
</mask>
<g mask="url(#mask4)">
<path d="M44.7123 96.4383C45.1965 96.4383 45.589 96.0455 45.589 95.5616C45.589 95.0776 45.1965 94.6849 44.7123 94.6849C44.2281 94.6849 43.8356 95.0776 43.8356 95.5616C43.8356 96.0455 44.2281 96.4383 44.7123 96.4383Z" fill="#E6EBEE"/>
</g>
<mask id="mask5" mask-type="alpha" maskUnits="userSpaceOnUse" x="172" y="126" width="3" height="2">
<path d="M173.589 128C174.073 128 174.466 127.607 174.466 127.123C174.466 126.639 174.073 126.247 173.589 126.247C173.105 126.247 172.712 126.639 172.712 127.123C172.712 127.607 173.105 128 173.589 128Z" fill="white"/>
</mask>
<g mask="url(#mask5)">
<path d="M173.589 128C174.073 128 174.466 127.607 174.466 127.123C174.466 126.639 174.073 126.247 173.589 126.247C173.105 126.247 172.712 126.639 172.712 127.123C172.712 127.607 173.105 128 173.589 128Z" fill="#E6EBEE"/>
</g>
<mask id="mask6" mask-type="alpha" maskUnits="userSpaceOnUse" x="62" y="113" width="6" height="6">
<path d="M64.8767 113.096C65.1768 113.096 65.3117 114.062 65.9693 114.72C66.6268 115.377 67.5069 115.427 67.5069 115.726C67.5069 116.025 66.6209 116.159 65.9633 116.817C65.3058 117.474 65.257 118.356 64.8767 118.356C64.4964 118.356 64.4276 117.43 63.77 116.772C63.1125 116.114 62.2466 116.054 62.2466 115.726C62.2466 115.398 63.0397 115.389 63.7274 114.701C64.415 114.013 64.5766 113.096 64.8767 113.096Z" fill="white"/>
</mask>
<g mask="url(#mask6)">
<path d="M64.8767 113.096C65.1768 113.096 65.3117 114.062 65.9693 114.72C66.6268 115.377 67.5069 115.427 67.5069 115.726C67.5069 116.025 66.6209 116.159 65.9633 116.817C65.3058 117.474 65.257 118.356 64.8767 118.356C64.4964 118.356 64.4276 117.43 63.77 116.772C63.1125 116.114 62.2466 116.054 62.2466 115.726C62.2466 115.398 63.0397 115.389 63.7274 114.701C64.415 114.013 64.5766 113.096 64.8767 113.096Z" fill="#FFDB63"/>
</g>
<mask id="mask7" mask-type="alpha" maskUnits="userSpaceOnUse" x="220" y="88" width="7" height="6">
<path d="M223.562 88.548C223.861 88.548 223.997 89.5141 224.654 90.1716C225.312 90.8292 226.192 90.8791 226.192 91.1781C226.192 91.4771 225.305 91.6112 224.648 92.2687C223.99 92.9263 223.942 93.8082 223.562 93.8082C223.181 93.8082 223.113 92.8816 222.455 92.224C221.798 91.5665 220.932 91.506 220.932 91.1781C220.932 90.8502 221.725 90.8406 222.412 90.1532C223.1 89.465 223.262 88.548 223.562 88.548Z" fill="white"/>
</mask>
<g mask="url(#mask7)">
<path d="M223.562 88.548C223.861 88.548 223.997 89.5141 224.654 90.1716C225.312 90.8292 226.192 90.8791 226.192 91.1781C226.192 91.4771 225.305 91.6112 224.648 92.2687C223.99 92.9263 223.942 93.8082 223.562 93.8082C223.181 93.8082 223.113 92.8816 222.455 92.224C221.798 91.5665 220.932 91.506 220.932 91.1781C220.932 90.8502 221.725 90.8406 222.412 90.1532C223.1 89.465 223.262 88.548 223.562 88.548Z" fill="#FFDB63"/>
</g>
<mask id="mask8" mask-type="alpha" maskUnits="userSpaceOnUse" x="116" y="8" width="6" height="7">
<path d="M119.233 8.76709C119.533 8.76709 119.668 9.73305 120.325 10.3906C120.983 11.0481 121.863 11.0984 121.863 11.3972C121.863 11.696 120.977 11.83 120.319 12.4875C119.662 13.145 119.613 14.0274 119.233 14.0274C118.852 14.0274 118.784 13.1005 118.126 12.443C117.469 11.7854 116.603 11.7248 116.603 11.3972C116.603 11.0697 117.396 11.0597 118.083 10.3721C118.771 9.68439 118.933 8.76709 119.233 8.76709Z" fill="white"/>
</mask>
<g mask="url(#mask8)">
<path d="M119.233 8.76709C119.533 8.76709 119.668 9.73305 120.325 10.3906C120.983 11.0481 121.863 11.0984 121.863 11.3972C121.863 11.696 120.977 11.83 120.319 12.4875C119.662 13.145 119.613 14.0274 119.233 14.0274C118.852 14.0274 118.784 13.1005 118.126 12.443C117.469 11.7854 116.603 11.7248 116.603 11.3972C116.603 11.0697 117.396 11.0597 118.083 10.3721C118.771 9.68439 118.933 8.76709 119.233 8.76709Z" fill="#FFDB63"/>
</g>
<mask id="mask9" mask-type="alpha" maskUnits="userSpaceOnUse" x="71" y="42" width="6" height="7">
<path d="M73.6438 42.9589C73.9436 42.9589 74.0787 43.9248 74.7362 44.5824C75.3937 45.2399 76.2739 45.2902 76.2739 45.589C76.2739 45.8878 75.3876 46.0217 74.7301 46.6793C74.0725 47.3368 74.0243 48.2191 73.6438 48.2191C73.2633 48.2191 73.1949 47.2923 72.5374 46.6347C71.8796 45.9772 71.0137 45.9165 71.0137 45.589C71.0137 45.2615 71.8068 45.2515 72.4944 44.5639C73.1818 43.8762 73.344 42.9589 73.6438 42.9589Z" fill="white"/>
</mask>
<g mask="url(#mask9)">
<path d="M73.6438 42.9589C73.9436 42.9589 74.0787 43.9248 74.7362 44.5824C75.3937 45.2399 76.2739 45.2902 76.2739 45.589C76.2739 45.8878 75.3876 46.0217 74.7301 46.6793C74.0725 47.3368 74.0243 48.2191 73.6438 48.2191C73.2633 48.2191 73.1949 47.2923 72.5374 46.6347C71.8796 45.9772 71.0137 45.9165 71.0137 45.589C71.0137 45.2615 71.8068 45.2515 72.4944 44.5639C73.1818 43.8762 73.344 42.9589 73.6438 42.9589Z" fill="#FFDB63"/>
</g>
<mask id="mask10" mask-type="alpha" maskUnits="userSpaceOnUse" x="190" y="0" width="10" height="9">
<path d="M194.63 0C195.131 0 195.355 1.60999 196.451 2.70588C197.547 3.80178 199.014 3.88559 199.014 4.38356C199.014 4.88153 197.537 5.10474 196.441 6.20064C195.345 7.29653 195.264 8.76712 194.63 8.76712C193.996 8.76712 193.881 7.22236 192.785 6.12647C191.69 5.03058 190.246 4.92949 190.246 4.38356C190.246 3.83763 191.569 3.82106 192.714 2.67494C193.86 1.52881 194.129 0 194.63 0Z" fill="white"/>
</mask>
<g mask="url(#mask10)">
<path d="M194.63 0C195.131 0 195.355 1.60999 196.451 2.70588C197.547 3.80178 199.014 3.88559 199.014 4.38356C199.014 4.88153 197.537 5.10474 196.441 6.20064C195.345 7.29653 195.264 8.76712 194.63 8.76712C193.996 8.76712 193.881 7.22236 192.785 6.12647C191.69 5.03058 190.246 4.92949 190.246 4.38356C190.246 3.83763 191.569 3.82106 192.714 2.67494C193.86 1.52881 194.129 0 194.63 0Z" fill="#FFDB63"/>
</g>
<mask id="mask11" mask-type="alpha" maskUnits="userSpaceOnUse" x="170" y="96" width="78" height="12">
<path d="M203.977 102.063C205.008 99.7786 207.306 98.1918 209.972 98.1918C211.904 98.1918 213.641 99.0247 214.845 100.352C213.819 100.67 212.866 101.161 212.066 101.772C211.683 102.069 211.613 102.619 211.909 103.002C212.205 103.385 212.756 103.456 213.139 103.16C214.08 102.423 215.128 101.946 216.32 101.772C216.366 101.773 216.414 101.771 216.46 101.764C216.785 101.719 217.088 101.698 217.424 101.699C220.761 101.699 223.555 104.03 224.265 107.153C224.358 107.566 224.729 107.844 225.137 107.836H239.342C239.826 107.836 240.219 107.443 240.219 106.959C240.219 106.475 239.826 106.082 239.342 106.082H225.79C224.673 102.525 221.35 99.9452 217.424 99.9452C217.213 99.9452 216.996 99.954 216.781 99.9698C215.275 97.835 212.787 96.4384 209.972 96.4384C206.781 96.4384 204.011 98.233 202.612 100.866C199.696 101.19 197.321 103.302 196.604 106.082H180.603C180.119 106.082 179.726 106.475 179.726 106.959C179.726 107.443 180.119 107.836 180.603 107.836H197.322C197.758 107.836 198.128 107.515 198.19 107.083C198.546 104.595 200.645 102.669 203.209 102.579C203.542 102.567 203.839 102.368 203.977 102.063ZM241.972 106.959C241.972 106.475 242.365 106.082 242.849 106.082H246.356C246.84 106.082 247.233 106.475 247.233 106.959C247.233 107.443 246.84 107.836 246.356 107.836H242.849C242.365 107.836 241.972 107.443 241.972 106.959ZM170.959 106.082C170.475 106.082 170.082 106.475 170.082 106.959C170.082 107.443 170.475 107.836 170.959 107.836H176.219C176.703 107.836 177.096 107.443 177.096 106.959C177.096 106.475 176.703 106.082 176.219 106.082H170.959Z" fill="white"/>
</mask>
<g mask="url(#mask11)">
<path d="M203.977 102.063C205.008 99.7786 207.306 98.1918 209.972 98.1918C211.904 98.1918 213.641 99.0247 214.845 100.352C213.819 100.67 212.866 101.161 212.066 101.772C211.683 102.069 211.613 102.619 211.909 103.002C212.205 103.385 212.756 103.456 213.139 103.16C214.08 102.423 215.128 101.946 216.32 101.772C216.366 101.773 216.414 101.771 216.46 101.764C216.785 101.719 217.088 101.698 217.424 101.699C220.761 101.699 223.555 104.03 224.265 107.153C224.358 107.566 224.729 107.844 225.137 107.836H239.342C239.826 107.836 240.219 107.443 240.219 106.959C240.219 106.475 239.826 106.082 239.342 106.082H225.79C224.673 102.525 221.35 99.9452 217.424 99.9452C217.213 99.9452 216.996 99.954 216.781 99.9698C215.275 97.835 212.787 96.4384 209.972 96.4384C206.781 96.4384 204.011 98.233 202.612 100.866C199.696 101.19 197.321 103.302 196.604 106.082H180.603C180.119 106.082 179.726 106.475 179.726 106.959C179.726 107.443 180.119 107.836 180.603 107.836H197.322C197.758 107.836 198.128 107.515 198.19 107.083C198.546 104.595 200.645 102.669 203.209 102.579C203.542 102.567 203.839 102.368 203.977 102.063ZM241.972 106.959C241.972 106.475 242.365 106.082 242.849 106.082H246.356C246.84 106.082 247.233 106.475 247.233 106.959C247.233 107.443 246.84 107.836 246.356 107.836H242.849C242.365 107.836 241.972 107.443 241.972 106.959ZM170.959 106.082C170.475 106.082 170.082 106.475 170.082 106.959C170.082 107.443 170.475 107.836 170.959 107.836H176.219C176.703 107.836 177.096 107.443 177.096 106.959C177.096 106.475 176.703 106.082 176.219 106.082H170.959Z" fill="#E6EBEE"/>
</g>
<mask id="mask12" mask-type="alpha" maskUnits="userSpaceOnUse" x="52" y="42" width="85" height="15">
<path d="M97.7535 44.7123C93.6382 44.7123 90.3014 48.0487 90.3014 52.1643C90.3014 52.6485 89.9086 53.0411 89.4247 53.0411C88.9408 53.0411 88.548 52.6485 88.548 52.1643C88.548 51.4911 88.6199 50.8348 88.7575 50.2027C86.6061 50.8622 85.0411 52.865 85.0411 55.2328C85.0411 55.717 84.6484 56.1095 84.1644 56.1095H70.137C69.6528 56.1095 69.2603 55.717 69.2603 55.2328C69.2603 54.7486 69.6528 54.3561 70.137 54.3561H83.3421C83.7366 51.1893 86.2422 48.6785 89.4072 48.2757C90.873 45.1351 94.059 42.9589 97.7535 42.9589C102.085 42.9589 105.717 45.9497 106.698 49.979C106.786 49.9749 106.873 49.9728 106.959 49.9726C109.74 49.9726 112.087 51.821 112.842 54.3561H135.89C136.374 54.3561 136.767 54.7486 136.767 55.2328C136.767 55.717 136.374 56.1095 135.89 56.1095H112.146C111.719 56.1095 111.353 55.8002 111.282 55.3779C110.934 53.3054 109.131 51.726 106.959 51.726C106.67 51.725 106.427 51.748 106.152 51.7998C105.918 51.8433 105.676 51.7896 105.483 51.6512C105.289 51.5128 105.16 51.3015 105.125 51.0658C105.121 51.0393 105.117 51.013 105.113 50.9867C104.549 47.4309 101.468 44.7123 97.7535 44.7123ZM52.6028 55.2328C52.6028 54.7486 52.9953 54.3561 53.4795 54.3561H63.1233C63.6075 54.3561 64 54.7486 64 55.2328C64 55.717 63.6075 56.1095 63.1233 56.1095H53.4795C52.9953 56.1095 52.6028 55.717 52.6028 55.2328ZM63.1233 49.0958C62.6391 49.0958 62.2466 49.4884 62.2466 49.9726C62.2466 50.4568 62.6391 50.8493 63.1233 50.8493H69.2603C69.7445 50.8493 70.137 50.4568 70.137 49.9726C70.137 49.4884 69.7445 49.0958 69.2603 49.0958H63.1233Z" fill="white"/>
</mask>
<g mask="url(#mask12)">
<path d="M97.7535 44.7123C93.6382 44.7123 90.3014 48.0487 90.3014 52.1643C90.3014 52.6485 89.9086 53.0411 89.4247 53.0411C88.9408 53.0411 88.548 52.6485 88.548 52.1643C88.548 51.4911 88.6199 50.8348 88.7575 50.2027C86.6061 50.8622 85.0411 52.865 85.0411 55.2328C85.0411 55.717 84.6484 56.1095 84.1644 56.1095H70.137C69.6528 56.1095 69.2603 55.717 69.2603 55.2328C69.2603 54.7486 69.6528 54.3561 70.137 54.3561H83.3421C83.7366 51.1893 86.2422 48.6785 89.4072 48.2757C90.873 45.1351 94.059 42.9589 97.7535 42.9589C102.085 42.9589 105.717 45.9497 106.698 49.979C106.786 49.9749 106.873 49.9728 106.959 49.9726C109.74 49.9726 112.087 51.821 112.842 54.3561H135.89C136.374 54.3561 136.767 54.7486 136.767 55.2328C136.767 55.717 136.374 56.1095 135.89 56.1095H112.146C111.719 56.1095 111.353 55.8002 111.282 55.3779C110.934 53.3054 109.131 51.726 106.959 51.726C106.67 51.725 106.427 51.748 106.152 51.7998C105.918 51.8433 105.676 51.7896 105.483 51.6512C105.289 51.5128 105.16 51.3015 105.125 51.0658C105.121 51.0393 105.117 51.013 105.113 50.9867C104.549 47.4309 101.468 44.7123 97.7535 44.7123ZM52.6028 55.2328C52.6028 54.7486 52.9953 54.3561 53.4795 54.3561H63.1233C63.6075 54.3561 64 54.7486 64 55.2328C64 55.717 63.6075 56.1095 63.1233 56.1095H53.4795C52.9953 56.1095 52.6028 55.717 52.6028 55.2328ZM63.1233 49.0958C62.6391 49.0958 62.2466 49.4884 62.2466 49.9726C62.2466 50.4568 62.6391 50.8493 63.1233 50.8493H69.2603C69.7445 50.8493 70.137 50.4568 70.137 49.9726C70.137 49.4884 69.7445 49.0958 69.2603 49.0958H63.1233Z" fill="#E6EBEE"/>
</g>
<mask id="mask13" mask-type="alpha" maskUnits="userSpaceOnUse" x="178" y="42" width="98" height="22">
<path d="M208.299 48.9899C207.459 50.0878 206.764 51.3023 206.243 52.6051C206.17 52.6036 206.098 52.6028 206.027 52.6027C200.512 52.6027 195.988 56.8464 195.543 62.2465H179.726C179.242 62.2465 178.849 62.639 178.849 63.1232C178.849 63.6075 179.242 64 179.726 64H196.384C196.868 64 197.26 63.6075 197.26 63.1232C197.26 58.4041 200.989 54.5558 205.661 54.3637C205.328 55.6203 205.151 56.9401 205.151 58.3013C205.151 58.7855 205.544 59.178 206.027 59.178C206.511 59.178 206.904 58.7855 206.904 58.3013C206.904 55.2425 207.915 52.4196 209.62 50.1486C212.1 46.8472 216.048 44.7123 220.493 44.7123C220.678 44.7123 220.862 44.716 221.046 44.7232C227.601 44.9852 232.962 49.8915 233.927 56.2413L233.931 56.2637C233.999 56.719 234.408 57.0439 234.867 57.0073C235.048 56.9927 235.213 56.9861 235.397 56.9863C238.899 56.9863 241.761 59.7234 241.961 63.174C241.988 63.6377 242.372 64 242.836 64H262.137C262.621 64 263.014 63.6075 263.014 63.1232C263.014 62.639 262.621 62.2465 262.137 62.2465H243.623C242.998 58.3133 239.622 55.2972 235.529 55.2339C234.108 48.2301 227.916 42.9589 220.493 42.9589C215.52 42.9589 211.102 45.3241 208.299 48.9899ZM266.521 62.2465C266.037 62.2465 265.644 62.639 265.644 63.1232C265.644 63.6075 266.037 64 266.521 64H274.411C274.895 64 275.288 63.6075 275.288 63.1232C275.288 62.639 274.895 62.2465 274.411 62.2465H266.521Z" fill="white"/>
</mask>
<g mask="url(#mask13)">
<path d="M208.299 48.9899C207.459 50.0878 206.764 51.3023 206.243 52.6051C206.17 52.6036 206.098 52.6028 206.027 52.6027C200.512 52.6027 195.988 56.8464 195.543 62.2465H179.726C179.242 62.2465 178.849 62.639 178.849 63.1232C178.849 63.6075 179.242 64 179.726 64H196.384C196.868 64 197.26 63.6075 197.26 63.1232C197.26 58.4041 200.989 54.5558 205.661 54.3637C205.328 55.6203 205.151 56.9401 205.151 58.3013C205.151 58.7855 205.544 59.178 206.027 59.178C206.511 59.178 206.904 58.7855 206.904 58.3013C206.904 55.2425 207.915 52.4196 209.62 50.1486C212.1 46.8472 216.048 44.7123 220.493 44.7123C220.678 44.7123 220.862 44.716 221.046 44.7232C227.601 44.9852 232.962 49.8915 233.927 56.2413L233.931 56.2637C233.999 56.719 234.408 57.0439 234.867 57.0073C235.048 56.9927 235.213 56.9861 235.397 56.9863C238.899 56.9863 241.761 59.7234 241.961 63.174C241.988 63.6377 242.372 64 242.836 64H262.137C262.621 64 263.014 63.6075 263.014 63.1232C263.014 62.639 262.621 62.2465 262.137 62.2465H243.623C242.998 58.3133 239.622 55.2972 235.529 55.2339C234.108 48.2301 227.916 42.9589 220.493 42.9589C215.52 42.9589 211.102 45.3241 208.299 48.9899ZM266.521 62.2465C266.037 62.2465 265.644 62.639 265.644 63.1232C265.644 63.6075 266.037 64 266.521 64H274.411C274.895 64 275.288 63.6075 275.288 63.1232C275.288 62.639 274.895 62.2465 274.411 62.2465H266.521Z" fill="#CAD3D9"/>
</g>
<mask id="mask14" mask-type="alpha" maskUnits="userSpaceOnUse" x="0" y="65" width="125" height="25">
<path d="M57.4247 67.5068C45.306 67.5068 35.3535 76.7859 34.2866 88.6268C34.2458 89.0783 33.867 89.4246 33.4133 89.4246H9.64384C9.15963 89.4246 8.76712 89.0318 8.76712 88.5479C8.76712 88.0639 9.15963 87.6712 9.64384 87.6712H32.625C34.138 75.3187 44.6638 65.7534 57.4247 65.7534C67.486 65.7534 76.1566 71.7 80.1168 80.2673C81.1178 79.9508 82.183 79.7808 83.2877 79.7808C88.1902 79.7808 92.3082 83.1333 93.4768 87.6712H123.616C124.1 87.6712 124.493 88.0639 124.493 88.5479C124.493 89.0318 124.1 89.4246 123.616 89.4246H92.7877H92.7728C92.7641 89.4246 92.7562 89.4246 92.7483 89.4246C92.7448 89.4237 92.7413 89.4237 92.7378 89.4237C92.3292 89.4079 91.9847 89.1107 91.9101 88.7066C91.1605 84.6263 87.5844 81.5342 83.2877 81.5342C80.5591 81.5342 78.1221 82.78 76.5127 84.7368C76.2052 85.1103 75.6527 85.1638 75.2787 84.8569C74.9047 84.5492 74.8509 83.9969 75.1585 83.6225C76.07 82.5143 77.2044 81.5956 78.4934 80.9345C74.7953 73.002 66.7508 67.5068 57.4247 67.5068ZM0.876712 87.6712C0.392522 87.6712 0 88.0639 0 88.5479C0 89.0318 0.392522 89.4246 0.876712 89.4246H6.13699C6.62119 89.4246 7.0137 89.0318 7.0137 88.5479C7.0137 88.0639 6.62119 87.6712 6.13699 87.6712H0.876712Z" fill="white"/>
</mask>
<g mask="url(#mask14)">
<path d="M57.4247 67.5068C45.306 67.5068 35.3535 76.7859 34.2866 88.6268C34.2458 89.0783 33.867 89.4246 33.4133 89.4246H9.64384C9.15963 89.4246 8.76712 89.0318 8.76712 88.5479C8.76712 88.0639 9.15963 87.6712 9.64384 87.6712H32.625C34.138 75.3187 44.6638 65.7534 57.4247 65.7534C67.486 65.7534 76.1566 71.7 80.1168 80.2673C81.1178 79.9508 82.183 79.7808 83.2877 79.7808C88.1902 79.7808 92.3082 83.1333 93.4768 87.6712H123.616C124.1 87.6712 124.493 88.0639 124.493 88.5479C124.493 89.0318 124.1 89.4246 123.616 89.4246H92.7877H92.7728C92.7641 89.4246 92.7562 89.4246 92.7483 89.4246C92.7448 89.4237 92.7413 89.4237 92.7378 89.4237C92.3292 89.4079 91.9847 89.1107 91.9101 88.7066C91.1605 84.6263 87.5844 81.5342 83.2877 81.5342C80.5591 81.5342 78.1221 82.78 76.5127 84.7368C76.2052 85.1103 75.6527 85.1638 75.2787 84.8569C74.9047 84.5492 74.8509 83.9969 75.1585 83.6225C76.07 82.5143 77.2044 81.5956 78.4934 80.9345C74.7953 73.002 66.7508 67.5068 57.4247 67.5068ZM0.876712 87.6712C0.392522 87.6712 0 88.0639 0 88.5479C0 89.0318 0.392522 89.4246 0.876712 89.4246H6.13699C6.62119 89.4246 7.0137 89.0318 7.0137 88.5479C7.0137 88.0639 6.62119 87.6712 6.13699 87.6712H0.876712Z" fill="#CAD3D9"/>
</g>
<path d="M80.6575 81.5343C71.452 67.0686 58.3013 64.0001 46.9041 68.3836C62.6849 69.6987 73.1601 81.5089 74.5205 86.7946C77.589 83.2877 79.7808 81.5343 80.6575 81.5343Z" fill="black" fill-opacity="0.04"/>
<path d="M236.712 56.9862C230.182 42.892 222.685 42.0822 215.671 45.1507C223.562 46.1161 229.699 52.6027 232.329 58.7396C232.767 57.8629 235.397 56.5479 236.712 56.9862Z" fill="black" fill-opacity="0.04"/>
<path d="M173.873 115.307L103.28 123.975C102.01 124.131 100.731 123.776 99.7234 122.989C98.7156 122.201 98.0619 121.046 97.906 119.777L87.0377 31.2611C86.9598 30.6264 87.1372 29.9868 87.5308 29.4829C87.9245 28.9791 88.5022 28.6522 89.1369 28.5743L89.162 28.5712L95.018 27.9141L99.7536 27.3812L103.154 27.0014L165.851 19.9456L177.064 101.729L178.071 109.933C178.227 111.203 177.872 112.482 177.085 113.49C176.298 114.498 175.142 115.151 173.873 115.307Z" fill="white" stroke="#0077CC" stroke-width="2.5" stroke-miterlimit="10" stroke-linecap="round"/>
<path d="M162.798 25.0921L172.948 99.2088L173.861 106.645C173.934 107.211 173.896 107.786 173.747 108.337C173.598 108.887 173.342 109.403 172.993 109.855C172.644 110.307 172.21 110.686 171.715 110.969C171.22 111.253 170.674 111.436 170.108 111.509L106.89 119.271C106.323 119.337 105.749 119.292 105.2 119.136C104.651 118.981 104.138 118.719 103.69 118.365C103.242 118.011 102.869 117.572 102.591 117.073C102.314 116.575 102.137 116.027 102.071 115.46L92.2466 35.4442C92.1686 34.8095 92.346 34.1699 92.7397 33.666C93.1334 33.1622 93.7111 32.8353 94.3457 32.7574L102.166 31.7972" fill="#AFD7FD"/>
<path d="M185.139 102.822H114.016C112.188 102.822 110.7 101.335 110.7 99.5068V7.89032C110.7 6.06239 112.188 4.57526 114.016 4.57526H168.933C169.818 4.57526 170.651 4.91982 171.277 5.5455L187.482 21.741C188.109 22.3672 188.454 23.2 188.454 24.0859V99.5068C188.454 101.335 186.967 102.822 185.139 102.822Z" fill="white"/>
<path d="M114.016 5.58212C112.742 5.58212 111.707 6.61714 111.707 7.89034V99.5068C111.707 100.78 112.742 101.815 114.016 101.815H185.139C186.412 101.815 187.447 100.78 187.447 99.5068V24.0858C187.447 23.47 187.206 22.8885 186.77 22.4532L170.565 6.25768C170.13 5.82271 169.549 5.58212 168.933 5.58212H114.016ZM114.016 3.56842H168.933C170.079 3.56842 171.178 4.02339 171.988 4.83334L188.194 21.0288C189.005 21.8394 189.461 22.9392 189.461 24.0858V99.5068C189.461 101.894 187.526 103.829 185.139 103.829H114.016C111.629 103.829 109.694 101.894 109.694 99.5068V7.89034C109.694 5.50341 111.629 3.56842 114.016 3.56842Z" fill="#75A4FE" stroke="#0077CC"/>
<path d="M123.659 85.041H155.002H123.659ZM123.659 69.3698H175.495H123.659ZM123.659 53.6986H175.495H123.659ZM123.659 38.0273H175.495H123.659ZM123.659 23.5616H155.002H123.659Z" stroke="#52A2EE" stroke-width="2.5" stroke-miterlimit="10" stroke-linecap="round" stroke-linejoin="round"/>
</svg>
